<svg xmlns="http://www.w3.org/2000/svg" width="880" height="105" viewBox="0 0 880.00001 105"><path style="line-height:125%;-inkscape-font-specification:'Carnivalee Freakshow, Normal';text-align:start" d="M856.44 9.07q3.28 0 8.22 2.94v.8q-1.87 0-2.8 1.2h.2q1.4-1 2.6-1l.27-.2v-.2q1.34.3 3.34 1.9 2.28 0 2.28-2.1h1.06l-.2-.2V12q2.1-2.7 2.6-2.7l.3.27v1.23l-.5.5.6 1.9-.5 3.7.6 3.7-.2.95.3.26-.3 2.7.3 3.7-.5.4.3.3v.2l-.3.3v.3l.5 3.4v1q0 1.8-.7 2l-.3-.2h-.3l-1 .3-.2-.2-1.3.3h-5.1q-.8-.2-.8-1.5V31l.3-1.2-.6-.5v-.55l1.1-1.23h-.6v-3.7l-.2-.2v-.26q.6 0 .8-1.2l-.8.44h-.2q0-1.28-2.1-3.45v-.2l.2-.25v-.26h-.2l-.2.2h-.3q-2.7-.77-5.4-.77-5.9 0-7.1 7.6 0 7.54 8.7 12.78l2.6-.25h2.5q.8 0 .8 2.7h-.3l1.5 3.42q9.8 8.43 9.8 12 .5 0 1 2.5l-.3.95v.78l.6.7-.3 1.48.3 1.2-.5 1.25.3.26h.3q-.4 5.2-1.8 5.2l.2.94q-3.8 8.8-7.7 10.34-1.4 2.16-7.5 3.38-1 .5-2.8.5h-2.3q-3 0-10-3.9L841 78q-.6-1-2.87-2.4-2.25-4.9-2.25-6.13l.2-1-.3-.98.24-1.5-.3-.3v-.3l.25-.3V65l-.2-1.2.3-1.9-.3-.26v-.25l.5-2.5-.55-1.5v-.7q.1-1.5.7-1.5h1.52l.3.2.8-.3.3.2h.2q2.4-1.5 3.9-1.5h1.2q1.1.3 1.1 2.2v1l-.5.7v.3l.6.7v1l-.5 1.7.53.4V63l-.26 1.2.5 3.47q-.5 0-.5.7.6 2.66 4.4 6.1 3.1 1.96 4.6 1.96h3.1q1.2 0 3.9-2.9l1.5.42h.2l-1.5-.28v-.5q1.4-2.7 1.8-7.85-.8-3.2-3.6-6.8-3.1-3.5-4.1-3.5l-4.4-.3-2.5.2-.2-.3v-.27l.3-.25V54l-.5-1.9v-1.8q-1.6-3.16-4.6-4.7-2.7-3.24-4.6-4.4l-2.3-4.4.3-.76-.7-1.97.2-.2-1-4.2v-.5l1.3-6.9.2-.3-.2-.2v-.26q1.8-5.8 8.7-10.1l6.7-2.2L857 9zm1.54 5.87v.52l.8-.26v-.26h-.8zm-3.6.77v.5l.8-.2v-.2h-.8zm-2.55 1v.3h.47l.8-.2v-.2h-.26l-1 .3zm-8.75 3.9h.27l1.53-.4V20h-.26q-1.54.26-1.54.7zm.8.5l-.27.3v.3h.3l.8-.2v-.2h-.7zm-3.07 1.8l-.2.3v.3h.3l.8-.2V23h-.7zm32.1.5h.3l.5-.5h-.2l-.5.5zm-4.9 2.2v.5l2.1-.9v-.5l-2 1zm-31.3 0v.3h1v-.2h-1zm28.7 1.4v.3h.6l1.1-.7h-.2l-1.3.5zM848 35.4v.26h.53l.73-.26v-.26h-.47l-.8.27zm-1 .5v.46l.73-.26v-.2h-.75zm-1.8 1.22h.26l.47-.5h-.22l-.5.5zm-1.55.7h.3l.46-.45v-.26l-.7.7zm-2.8 1.2h.2l.55-.44h-.27l-.45.46zM839 66.24v.2h1.27v-.2H839zm3.54 1.47v.5l1.8.5q0-.3-1.8-.9zm21.12 6.6v.3l1 .3h.54v-.3l-1.34-.3h-.2zm2.54 1v.3l1.8.2q0-.4-.8-.4h-1zm2.34.5v.5h1V76l-1-.24zm-52.86-67h3.4q2 .8 3.68.8 0 .8 2.34 1l3.94 2.8q3.2-2.2 4.2-4h.28v2.8l.27.3v.3q-.4 0-.8 1 .8 0 .8.5v.8l-.3.3.2.3v.3l-.3.2.2.3v1.2l-.3 1.4.2.3v.2l-.3.8.3.8-.6.5.5.5-.3 1.3.2.8-.6.9.5.6-.3.2.3.3v.2l-.3 4.8v.3l-.3.2v.2l.6.5v1.3l-.8 1 .8 1.2v.5l-.6.5h-7l-.3-.2-.3.3h-1l-.3-.2h-.2l-.3.3-.3-.73.3-4-.3-.3v-.2l.5-1.54-.5-.5v-1h.5V28l-.5-.7V27l.5-.5q0-5.54-3.4-7.8 0-.62-4.7-1.26v-.2l-1.3.47v-.2q-3.4 2.6-3.4 7.3l-.4.5v.5l.2 1.8-.2.3.5.5v2.8h-.4l.2 1.2v.8l-.2 1.6.5 1.5-.2.3.3.3v.5l-.4 2.3.2 1.1h-.2l.5 2v1.1l-.3 1q0 .7 4.4 5.3-1 1.7-3.6 3.8l-1 3.7V59l.2.9-.2 1 .5 1-.4 2 .4 1.8-.5.5-1.4-.5h-.3v.3q1.8.2 1.8 1.2l-.2 1.54.5 1.94-.3.28v.3q1.7 6.5 5 6.5h1.6q6.5-2.6 6.5-7.42l.3-.27.8.3h.8V70q-2 0-2-2.03l.3-.2-.3-1.48.2-3-.3-1.6.3-.3h.5l.5.5.8-.3 7.6-.2v.7h-.1l.54 4.3v3l-.5.8.5.7-.3 1.3v.7h-.8v-1h-.6q0 .7 1 .7l.2.2v.2q-1.9 5.5-6.8 8.2-3.3 4.1-11.6 4.1-1.9 0-8.1-3.8-3.5-3.9-5.5-7V74l.2-.7h-.2q-.5 0-2.3-5l.23-.2-1.4-1.5-1.4-5.2-.5-3 .2-.2V58q0-3.7-4.7-7.3l-.8-1 3.7-4.22.8-4.28-.3-.26q.26-3 .8-3.5l-.3-1.03.5-1-.3-.7Q798 24 800 21.4q.2-1.4 1.1-1.4v-.5q0-1.85 1.86-3 .76-2.9 5.24-4.8.28-.82 2.9-1.46 0-1.3 4.5-1.3zm7.62 3.6v.3h.26q0-.7.8-.7l.27-.7h-.26q-.54.2-1.07 1.3zm-2.34 0v.8h.27l.2-.8h-.47zm-3.2 2.5v.3h1.06V15h-1.07zm0 .8l-.2.3v.5h.2l.26-.7h-.27zm-12.04.3l-.27.3v.2h.27l.8-.3v-.3h-.8zm11.03.5l-.27.3v.3h.8l-.53-.5zm-13.9 3h.47V19q.8 0 .8-.5h-.27l-1 1zm20.7-.2v.3l1.28.5v-.5l-1-.2h-.27zm3.42 3l1.07 1.6v.2h.47l-.2-.3v-.3l.2-.3V23q-.6 0-1.5-.77zm-1.6.3v.5h.8v-.2l-.8-.2zm3.4 1.8v.5h.54q0 .7.8.7v.5h.6l-1.3-1.7h-.5zm3.42 2.3v1h.5q.5 0 .5-.8v-.2h-.2v.5h-.6v-.5h-.3zm-26.5 35.9q0 .6-1.6 1.2v.5l1.8-1.5v-.2h-.3zm.5 1.5l-.3.8h1.8v-.2l-1-.5h-.6zm2.6.3l-.3.3v.3l1.3.6h.2V65l-1.4-.76zm-6.6.8q-.6 1.2-1.1 1.3V66l-.8.2v.4l.2-.2h.5l.2.2h.2q0-1 1.3-1.2V65l-.8-.26zm-2.9 2v.8l1-.5-.3-.2V67l-.8.3zm27 2.5v.3h.8v-.5l-.8.3zm1 1v.2l.8.3v-.5h-.8zm1 .2v.6h1.3V71l-1.4-.25zM771.8 9.1q1.47 0 4.14 2.4 1.73-2.1 3.27-2.1 9 0 11.6 6.58l-3.9-1q-3.8.3-3.8 2.1l.3 6.83v1.6l-.2 2.1.3 2.1-.2 1.9.3 2.4v6l4.4 5.3v.5q-1.9 2.6-3 2.6l.3.4v.2q-1.6 1.4-1.9 3.7l.3 5V62h-.5v2.42l.2 1.53-.2.27v.25l.6 3.2-.3 6.07.3.77-.3 1q2.9 3.2 3.8 3.2 1.7 0 3.7-1.3h.3q0 3-6.1 4.8l-.2-.3h-.2q-2.4 1.9-3.8 1.9-2.8 0-4.7-2.1 0 1.2-4.6 1.4-6.7-1.1-9.3-3.9l-1.4-1.6.3-.2 3.4 1.6q4.4-1.2 4.4-3.9l-.3-.2V75l.6-.8-.6-2.1.3-.3-.3-3.2V68q0-8.04.6-11.04l-.6-1.53.3-1.6-.3-2.62v-.8l-4-5q4.4-5.1 4.4-6.8l.3-4.7-.6-2.4v-.7l.9-7.2q-.9 0-1.1-5l.2-.7q0-2.3-4.1-3.2h-.4q-1.6 0-3 1.4v-.5q2.6-4.3 9.1-6.3h2.2zm6.88 5.8v.57l1.07-.26V15h-1.05zm-1.67.57l.6.5h.3v-.5h-.8zm-2.4.5v.26l2-.26v-.25h-1.1l-.8.25zm-4.9.5q0 .6.8.6h.3v-.33l-1-.3zm10.8 18.4v.58l.8-.24v-.6l-.8.3zm-.6 1.6l-.2.84v.3h.3l.6-1.1h-.6zm-1.3 2.37v.2l.6-.5v-.25l-.6.5zm-.8 1.3l-.3.8h.5l.4-.77h-.6zm-.6 1.05l-.2.8h.6v-.9h-.2zm-2.2 3.2l-.5 1v.5h.3l.6-1.3v-.3h-.3zm-1.3 2.1l-.2.7h.6v-.8h-.2zm5.2 1.2v.3l.8-.8h-.2l-.5.5zm-7.7 1.9v.2h.6l.8-1v-.3q-.4 0-.8 1h-.6zm-1.4 1.6v.2h.6l.9-1.1V50l-1.1 1.1h-.3zm3.3.5v.3h1.2v-.5l-1.1.2zm3.7 18.6v.5h.8v-.3l-.8-.3zm1.7.8v.2l1.1.2h.3v-.3l-1-.2h-.2zm2.2.7v.5h1.4l.3.2h.3V72H781l-.27-.26h-.26zm-4.4.2v.2l1.1.2q0-.5-.8-.5h-.3zm2.8 1.3v.5l1.1.2-1.1-.8zM753.2 5.8q5.6 1.75 5.6 4.37h-.23l.3.26v.5l-.27.27v.27l.72.7q0 1.83-1.54 4.6 1.8 2.72 1.8 5.1 0 3.63-6.1 4.6v-.2q1.2-1.2 1.55-2.7 0-1.7-3.3-1.7l-2-.2-2.8.5-1.3-.2-2.5.3h-.5l-1.6-.3-1 .3h-.47V22l-1.8.25h-2.54l-.3 2.44v1.9l-.3.2v.2l-1.5-1h-.2q0 .4 2 1.4l.25.2v.2l-.28 2 .2.9-.3 1.7.2.2-.6 4.6.5.5-.3.7.3 2.7v.2l-.3.2.3.7-.6 1.9q0 3.3 4.6 7v.8q-4.4 4.9-4.4 5.8l.3 2.7q-.2 2.4-.6 2.4l.2.3v.2l-.3.9.3.2v.2l-.3.7.2.2-.3 1 .5 5.3-.6 4.6 2.3 2.7 1.4.5h.3q1.3 0 3.1-1l.3.3v.3q-5.9 5.8-10 5.8-2.3-.4-4.1-2.2-1.4 1.6-5.8 1.6-3.2 0-8.4-5.8l.3-.3q1.3.7 2.5.7h1.8q2.5 0 2.5-4.4l.3-2.9-.3-1.1.2-1.9-.3-7.5.5-.5-.6-2.7.2-.2q0-2.5-4.08-6.6.4-.8 4.1-3.9h-.5l.8-2.9q-.5-1-.5-3.9l.7-1-.7-.7.5-2.4-.5-3.6.7-.3-.8-3.2.3-.7-.2-3.4.3-.9-.24-1h.3l-.2-.2v-1.7q-1.8 0-1.8-.9l-2 .7-.3-.3-.5.5-3-.2-2.3.3-.8-.2-1 .3-1.8-.2-1.7.2-1.7-.1q-2.1.2-2.1.5l-.2.9q0 1.9 1.5 3.2v.3q-4.4 0-6.5-4.6 0-1.2 1.5-4.1-2-1.3-2-3.6v-.7q0-4.3 6.6-5.6v.3q-1.2 1.3-1.2 2.2v.8q0 1.7 2.8 1.7l1.6-.2h.5q2.6 0 2.6.7h.3q0-.7.5-.7h.2l1.8.2 2-.2 5.1.5 3.6-.5 1.3.4 8.1-.5.8.2 1-.2 1 .2 3.6-.2h2.5l2.3.2.3-.2h.2l5.1.4q5.3-.6 5.3-1.9.8-1 .8-2-.3-2.9-1.5-2.9V6zm-8.9 8.78v.25h1v-.25h-1zm-4.3.7v.25h1.8v-.44l-1.8.2zm-1.74.25v.26h1v-.3h-1zm-2.38.26v.2h1.06v-.3h-1.07zm-3 .5v.2h1.3v-.2h-1.27zm-2.56.4v.3h1v-.3h-1zm-2.8.5v.2h1.5v-.3h-1.53zm-6.6.9v.2h1.8V18l-1.8.26zm-3.03.2v.2h1.8v-.3h-1.8zm-1.3.2v.2h1v-.2h-1zm-4.3.4v.3h1V19h-1zm7.9.3v.2l1 .2h.3v-.3l-1.1-.3h-.2zm-17.6 1.2v.2l1.6.2.3-.3v-.3h-1.8zm28.2 19.2v.2h.3l.7-.2v-.3h-.2l-.8.2zm-2 1.2h.3l.5-.5h-.3l-.5.5zm-5.9 0v.3l1.8.9v-.5q-.6 0-1.3-.7h-.6zm4.6.7h.2l.4-.4h-.2l-.5.4zm-.8 1.5l1.2.9v-.5l-1-.5h-.3zm2.3 1.4q0 .4.7.4h.3l-1-.3zm1.2.4v.3l.7.8h.2l-1-1zm1.7 1.2l-.3 1.1.8.2.7-.2V47l-1.2-.77zm-3 23.2l.4.4h.3l-.5-.5h-.2zm1 .7v.2l.7.3h.3v-.2l-.8-.2h-.3zm1.7 1v.4h.5q0 .7.5.7l-1.1-1zm-7.1 5.8v.3h.7v-.5l-.7.2zm-2.6 1.2v.2h.7V78l-.8.26zM669.3 9h.8q4.03 0 8.9 3.44l3.6 4.17.8-.2v.3q3 4.3 4.36 8.8.86.7 1.8 5l-.27.8q.8 0 1.2 4.2h-.7q1 1.6 1 2.5l-.2 1.5q.5 0 1.3 2.3l-.2-.2h-.2v.3q1.8.3 1.8 1.5 1.3.6 2.6 2.2l-3.9 4.2-.7 1.2.3.7-.2.8.3 1.2-2.3 11.7.3 1q-1.2 4.2-3.1 6.1 0 4.6-7.4 9.8-4.5 3.5-6.4 3.7l-2.1-.5-1.3.3q-6.4 0-12.6-7.1l-3.6-5.7q0-2.1-1.5-4.1l.3-.7-.8-.8.5-.7V66q-1.8 0-2.4-9.33-.4 0-.6-1.72v-1.47l.2-.96-.3-1.02v-.26l.3-1.2-4.4-4.42v-.5q4.1-4.3 4.1-5.12 0-4.53 2.6-13.28 1.5-2.24 2.3-5.62 3.5-5.82 6.4-6.65l-.2-.2V14q2.4-3.72 5.9-3.72.6-1.2 3.8-1.2zm-1.5 7v.2l1.35.24h.2v-.24l-1.3-.2h-.3zm2.35.44v.52l1.2.26h.5v-.26l-1.8-.5zm-5.9 4.42l.2 1.28v.2l-.6.5.2 1.98-.3 11.05-.3 1.64.2.3v.2l-.3.2v.2l.3.3v.2l-.25.2v.2q.4 1.6 4.34 5.4v.2q-4.1 4.5-4.1 5.8l-.3 4.6.25.9-.6.5.5.4v1l-.2.2.2.2v.3l-.3 1.3.2.7-.3 1 .2 6.1v.3q0 .5-1.1.5v.5q1.3 0 1.3 2.2 1.3 5.2 5.1 5.2h1.3q4 0 5.8-6.6-.1-1.2-.8-1.2l.5-1.4-.5-1.7.3-.9-.2-5.4.3-.3h.3l-.6-1.2.3-2.2-.3-2 .2-2.7q0-1-4.4-5.9 4.3-4.6 4.3-5.6l-.3-.3v-.3l.8-1q-.8-.9-.8-1.7l.3-3.6-.3-3 .3-.7-.3-1.5V25l.2-.9q-.3-2-2.3-6.12h-.2l-.3.2q-1.2-.5-3.4-.5h-.2q-3.4 0-5.1 2.93h-.2zm23.8 14v.24h.4l1-.25v-.25h-.5l-1 .26zm-4.2.24v.52h.2l1-.77h-.2l-1.1.26zm2.8 0v.26h1v-.26h-1zm-4.2 1.22v.25h.8q0-.5.7-.5v-.2h-.2l-1.3.43zm-1.6.25v.24l.3.3v.3l-.3.2v.5h.2q0-.7.7-.7l.8.2-1.28-.9h-.5zm-1.8 1.2h.2l.52-.5h-.27l-.5.4zm9.5 2.2v.2l1 .2h.23v-.2l-1-.2h-.3zm-27 2.7v.5l1-.3v-.3h-1zm-1.58.9h.3l.53-.5h-.26l-.55.4zm-3.6.7v.2h.3l1.24-.3v-.5l-1.5.5zm-3.5 1.4h.2l1.53-.5V45h-.2q-1.53.24-1.53.75zm.46 20.8l.54.5h.27v-.5h-.8zm5.95 1.3q0 .4.74.4h.55V68l-1.27-.2zm2 .7q0 .5.8.5h.3v-.3l-1.1-.3zm15.2 4.6l1 .8h.52v-.3l-1.27-.5h-.3zm1.8.8v.4h.3l.42-.5h-.7zm4.1 1.4v.2h1.03v-.2h-1zM672 79.7v.3h.45l1.1-.26v-.3H673l-1 .26zM620.2 9q11.15.6 12.02 2.28 3.3.8 7.8 6.57v.5h-.54v.52q1.74 0 2.15 3.43l.75 1.52-.2.26v.24l.2.77h-.2l-.8-.3q0 .4 1.2.7l.54 5.5q-.4 4-5.24 10.5l-3.4 2.2v.8q4.94 4 4.94 4.7v.8q0 .5-.75.5v.2h.74l.3-.2h.3q2.6 3.7 2.6 4.9 1.1 3 1.1 5.5v1.2q0 2.8-.8 5l.3 1q-1.4 6.2-7.1 12-5.7 4.5-10.1 4.5l-2.4.7h-2.3l-5.4-1.1q-.7 0-4.4-2.7h-.2q0 .9-3.4 1.8-7 0-10.5-5.1V78q3 2 3.9 2 3.2-.5 3.2-1.8l.3-.2h.3q0-.5-.8-.5V77l-.2-2 .2-1.28-.2-1.26.3-.98-.2-1.28.3-.96-.2-.28.5-2.3-.2-.2v-.24l.3-1.02-.5-.5.3-.26-.2-1.22v-12.3l.2-1.28q-1.7-1.34-3.6-3.96l-.2-.25h-.3q0-.77 1.9-1.8 0-.63 1.8-1.97l1.8.5h.2v-.25l-2.1-.5.5-3.7-.2-.3v-.3l.3-2.5-.3-2.8.3-3h.58v-.5q-.8 0-.8-.4v-1.7q0-.5.8-.5v-.2h-.6v-.2l.3-1.7-.6-.8v-.5h.2l-.2-2.9v-3q-.8-2.5-1.6-2.5l-1.3-.3H599q-2.7 0-4.7 2.3v-.5q2-5.5 12.9-5.5 2 0 4.2 3h.5q2.1-2 4.75-3l.8.7v-.7l.24.3h1q0-.6 1.9-1zm-17.85 3.3v.5l1.07-.24v-.5h-.3l-.8.2zm11.56 4q0 .48.8.48h.3v-.2l-1-.2zm2.6 1l.6.5h.3l-.5-.5h-.2zm1.6 7.52l.3.7-.5 4.3.6 2.23v.26q0 1.8-.5 1.8l.5 1.2-.5 2q1.6 3 3.7 3h.3q6.6 0 6.6-6l.2-1.2-.2-1v-1.2l.5-.8q-.6 0-.6-.7l.6-2.2-.5-.5v-.2l.8-1h-.5v-.2l.5-.7q-.8 0-.8-.5v-1.8l-.3-1.3 1.1.3h.3V21q-1.3 0-2.7-1.46l-2.9-1.8q-5.2 1.3-5.7 6V25zm18.9-3.5h.3l.6-.5h-.2l-.5.5zm-6.5-.25v.25l.6.5v-.24l-.5-.5zm3.4.25q0 .5-1 .5v.27l1.3.2v-.2l.3-.3v-.3l-.2-.2h-.3zm.6 1.47l.8.2q0-1.1 1.6-1.5v-.2h-.3q-2.1.9-2.1 1.4zm-2.8-1.2l.5.5h.3l-.5-.5h-.2zm.3 1.7v.7l1.8-1.1.3.2h.6V23l-.5-.5-2 .7zm-2 1v.2h.5l.8-.2V24h-.3l-1 .25zm-22.5 18v.5h1v-.3l-1-.3zm1.3.7v.2l1.1.2V43h-1.1zm2.4.7q0 .6.8.6h.6V44l-1.3-.26zm4.4 1.1v.7q1.1 0 1.7.9l-.2.2 2.3.5h.8V47q-3.1-.5-3.1-1.96h-.6v.5q-.5 0-.5-.74h-.3zm-3.1.2v.5h.8v-.3l-.8-.3zm1.9.7v.2l.3.2h.5V46l-.7-.2zm6.5 1.4v.5l1.1.2q0-.4-1.1-.8zm1.6 1v.2l1.6.4h.8v-.3l-2-.4h-.3zm2.6.7v.5h.8V49l-.8-.27zm1.6.7v.3l1 .2q0-.5-.7-.5h-.3zm-8.6 8.3l.6.7-.3 1.7.3.2v.3l-.3.2.3 1.5-.2 4.7.2.2v.3l-.3.2.3 1.2v.2l-.5.5 1 4.3-.3.2q.5 0 2.1 2l2.9.5q5-.7 5-4l-.2-1.7.5-3.5-.5-2.2.3-1.3-.3-2.8.5-3-.5-.5v-.5q0-2.5.8-2.5-1.4 0-2.2-3.3l-3.4-1.4q-5.2.7-5.2 6.7l-.5 1zm11.9-7v.2l1.3.4V51l-.8-.23h-.5zm6 .9q0 .5-1.3.7l-.2-.3-2.4.2v.3q2.6 0 2.6.5 1.4 0 1.4-1h.5l-.4-.6zm2.4.5v.2h.5l.8-.3V52h-.5l-.8.3zm-2.1 1v.3l1 .5h.3q0-.4-1.1-.8h-.2zm1.8.8v.4h.8v-.2l-.8-.2zm2.4.9q0 .5.8.5h.6v-.3l-1.3-.3zm-26.7 19.3l-.5.9h.6l.3-.7v-.3h-.2zm3.9.5l-.2.3v.2h.2l.8-.2v-.3h-.8zm-3.1.7v.5l1.9-.3v-.5l-1.9.3zm-6 .5v.2h.8l.6-.6h-.5l-.8.3zm4.5-.3v.5h.3l.5-.5h-.8zm-1.8 1.5l1 .5h1.4l-.3-1h-.3q0 .7-.5.7h-.5V77l.3-.23v-.27h-.5l-.4.5zm2.6-.5l.6.5h.2v-.5h-.8zm1.6 1.7l-.3.8v.2h.3V79h.2l1.4.5q0-.5-1-.5v-.55h-.6zm-8.9 2.3v.3l.8.2v-.5h-.8zM567.4 9h.8q4 0 8.9 3.47l3.6 4.12.8-.3v.3q3 4.2 4.34 8.8.85.7 1.8 4.9l-.3.8q.8 0 1.3 4.2h-.76q1 1.6 1 2.4l-.25 1.4q.47 0 1.27 2.2l-.2-.3h-.23v.2q1.8.2 1.8 1.4 1.23.6 2.5 2.2l-3.9 4.2-.75 1.2.3.7-.26.8.3 1.2-2.4 11.8.25 1q-1.2 4.2-3.1 6.1 0 4.5-7.4 9.8-4.5 3.5-6.4 3.7l-2.1-.5-1.2.2q-6.3 0-12.6-7.1l-3.5-5.6q0-2.2-1.5-4.2l.3-.7-.8-.8.6-.7q-1.8 0-2.3-9.4-.4 0-.5-1.7v-1.4l.3-1-.3-1v-.3l.3-1.2-4.3-4.5V45q4.1-4.3 4.1-5.1 0-4.53 2.6-13.3 1.5-2.22 2.2-5.6 3.6-5.82 6.4-6.65l-.2-.2V14q2.5-3.72 5.9-3.72.6-1.2 3.8-1.2zm-1.6 6.9v.2l1.33.26h.2v-.26l-1.26-.2h-.26zm2.34.46v.5l1.2.26h.53v-.26l-1.8-.5zm-5.9 4.4l.2 1.3v.2l-.53.5.3 1.96-.3 11.05-.2 1.6.3.3v.2l-.3.2v.26l.3.3v.2l-.2.3v.24q.4 1.6 4.4 5.45v.2q-4 4.4-4 5.7l-.3 4.64.3.94-.5.5.6.45v1.02l-.3.23.3.2v.3l-.3 1.3.3.7-.2.96.3 6.13v.2q0 .5-1.1.5v.5q1.4 0 1.4 2.2 1.3 5.1 5.1 5.1h1.3q4.1 0 5.9-6.7-.1-1.2-.8-1.2l.6-1.5-.5-1.7.2-1-.3-5.4.3-.3h.3l-.5-1.2.2-2.2-.2-2 .3-2.7q0-1.1-4.4-6 4.4-4.6 4.4-5.6l-.3-.2.8-1q-.8-.9-.8-1.7l.3-3.7-.3-3 .2-.8-.2-1.5v-2.1l.3-1q-.2-2-2.2-6.2h-.3l-.2.2q-1.2-.5-3.4-.5h-.3q-3.4 0-5.1 2.9h-.3zm23.8 14V35h.47l1.1-.23v-.26h-.6l-1 .3zm-4.14.24v.54h.3l1.1-.8h-.3l-1.1.27zm2.9 0v.28h1V35h-1zm-4.12 1.24v.23h.8q0-.5.72-.5v-.2h-.3l-1.27.4zm-1.56.23v.2l.3.26v.27l-.26.2v.5h.23q0-.7.7-.7l.8.2-1.3-.9h-.6zm-1.8 1.2h.3l.54-.5h-.3l-.55.47zm9.5 2.2v.25l1.1.2h.27v-.2l-1.1-.2h-.3zm-26.9 2.7v.5l1-.27v-.2h-1zm-1.54.93h.3l.55-.4h-.27l-.54.46zm-3.6.8v.3h.3l1.3-.26v-.5l-1.54.5zm-3.5 1.5h.2l1.53-.5V45h-.2q-1.5.27-1.5.78zm.46 20.8l.53.5h.25v-.5h-.8zm5.96 1.3q0 .5.73.5h.5v-.24l-1.3-.2zm2 .7q0 .5.8.5h.3v-.2l-1.1-.26zm15.2 4.7l1 .77h.5v-.28l-1.24-.5h-.3zm1.8.77v.43h.24l.48-.47h-.7zm4.05 1.45v.2h1.06v-.2h-1zm-10.5 4.4v.24h.47l1.1-.25v-.2h-.55l-1 .3zM512.85 3q7.8 0 14.57 6.2 6.87 7.54 6.87 14.24-.2 3.26-.7 3.26l.6 1.3q0 7.7-5.4 14.67-.9 0-4.7 4.86v.64q8 3.27 9.2 6.5l.6 1.3-.4 1h.4q1 0 1 3.6v1.28l-.3 1.9.3.4-.3 2.25.3 3.6-.7 1.26.3 1.02-.7 4.2q1 3.3 1.6 12.26 2.1 2.3 3.7 2.3h.3q1.2 0 2.7-1.3h.3v.3q0 1.67-1 1.9h-1l-2.1-.3h-.3v.3l3.4.66q-2 4.7-11.9 8.46l-1.4.4H527q-3.9 0-6.7-4.6-1.5 0-4.4-4.88l.3-.34v-.3l-.3-2 1 .4h.37v-.4q-.65 0-.65-.94l-1-.94.33-.97-.4-1.3.65-4.2-.7-.7v-2.1l.7-.7-.3-2.3.33-1-.36-1.9v-1.1l.34-1.3-.3-1.3v-.4l.3-2.7-.4-2.6.4-.4v-.3q-.8 0-1-4.2 0-2.6-9.1-3h-4v11.1l-.4 6.2.4 1.6-.4.3.4 1.6v3l-.7.6.8 2.3-.4.3.4.3-.4.3h-.3l.8 3.2-.4.3v.3l.4 1.2-.4.9q2.5 4.9 5.5 4.9 1.6 0 3.8-2h.4v.4q-1.2 3-3.4 4.2-2.5 4.9-6.8 4.9-4.5-.5-8.5-4.3-3.1 3.5-5.7 3.5h-.7q-5.2 0-12.2-8.5v-.4l5.1 1.3 2-.4 1 .3-.4-.3V92q.7 0 2-3.9-.7 0-.7-.95l.3-.35-.4-1.6V85l.3-2.6-.4-1.9.3-1.1-.4-1.9V76l.3-.37-.4-.32v-10l.7-.9-.6-7.4.4-1-5.02-5.2-.37-.3v-.3q5.4-5.9 5.4-8.1l.35-2.3-.3-.3v-.6l.4-1.3-.7-2v-.3l.6-.6-.7-2.3.3-1.6-.3-2.9V25l.3-1.67-.3-2.27.7-7.8q-2.3-2.3-4.4-2.3l-5.4 2.64v-.35q3.9-5.4 9.2-7.2.8-1.33 4.4-1.33 2.3.44 5.4 3.6 7.8-4.9 10.9-4.9h.3l.3.3 8.5-.65zm-17 4.5v.3h1.75v-.2h-1.7zm6.5 0v.3l1.66.33h.4V7.8l-1.7-.32h-.3zm2.66.63v.3l1.8.33h1v-.6h-.3l-1.4.3-.3-.3h-.7zm5.1 1.1v.3l1.4.33V9.2H510zm4.4.63v.3l2.4.32h.7v-.32l-2.1-.3h-1.1zm3.8.62v.32h1.4v-.32h-1.4zm2.1.64v.32l2.4.3h1.7v-.3l-3.7-.33h-.3zm4.8.64v.3l2 .34h.7v-.32l-2-.3h-.7zm-19.4 1.35q0 1-.7 1l-.4-.3-1.7.3h-1v3.3l-.4 1.3.4.3v.3l-.4 2.6.4 4.6-.4 1.9.4 2.6v2.3l-.8 1 .8 1.9-.4 2.3.4 1.3-.4 1.4q0 2.9 2.1 2.9l4.8.4q6.8-1.8 6.8-6.4 0-2.6 1.7-2.6V35q-1.3 0-1.3-.95v-6.5l.7-.64q-1.2-11-3.4-11 0-1.1-5.1-1.9v-.3l-.3.3H506v-.6h-.35zM525 38.7v.4h.6l1.32-1h-.34l-1.64.6zm-39.1 1v.7l1.32.7v-.3l-1.34-1zm33.93 1.7v.3h1l.33-.3V41h-.36l-1 .32zm-4.4 1.5v.7l1-.3V43h-1zm-4.1 2v.6l1.7-.6v-.3h-.67l-1 .3zm-3.73 1.3l.33.3v.3l1.34-.3v-.6l-1.7.3zm-5.4 1.6v.3h1l2.32-.6v-.3h-1l-2.37.6zm6.4-.3v.3h1.73v-.3h-1.72zm7.15 1.3v.3l1.65.3h.65v-.3l-2-.3h-.34zm3.4.7q0 .6 1 .6h.32v-.3l-1.3-.3zM494 50v.62l1.66-.33V50H494zm29.2.62v.3l1.33.3h.66V51l-1.7-.32h-.4zm-38.37.63v.3h1.66v-.3h-1.7zm3 0q0 .9-4.08 1.66v.4h1.06q2.9-1.3 4.4-1.3v-.6l-.3.3h-.4l-.3-.3h-.3zm40.76 1.34v.6h1.4V53l-1.4-.3zm-26.1.3v.6h1v-.3l-1-.3zm19.3 36.6v.5l3.7.9h1q0-.5-4.4-1.3h-.4zm5.8.9l-.4.3v.3h3.1l-2.7-.3zm5.7.6q0 .6 1 .6h.3v-.3l-1.4-.3zM408.7 8.8l.8.27.7-.26.5.6.6-.5q3.4.6 3.4 1.5l1.3-.2q0 .5 3.7 2.8v.5l-.24-.2h-1v.2q1.44 0 2.6.8 2.05-1.3 2.6-2.7.5 0 2.6-2l.24.3v1.5l-.25 1.6.27.3v.3l-.25.7.3 1.1-.2.3.26 1.3v1l-.25 1.1.28 1.2-.54 2.3.5.5-.24 1 .23.3-.2 1.7v.5l.3 2.3-.2.3v.2l.3 1.1-.2 2.3.3 4.8q0 1.5-1 1.5h-.5v-1l-1.8.3H419l-.54-.5.3-1.2q-.5 0-.5-.7 0-1.3.54-1.3l-.2-1.2V32q0-.4 1.1-.77l.2-.2v-.25h-.2l-.8.4-.56-2 .6-1q0-7.7-6.56-11.3l-1.02.5-1-.3q-4.1 0-5.8 5.2l.3 1-.5.5.2 4-.7 2 .3 1.7v2.3q0 8 1.8 8l2.6 3v.3q-4 3.5-4.2 5.2l.2.2-.2 1.7v.2l.2 2.2-.5 4.8h.5l-.2 2.4V63l.2 1.47-.2 1.03.2 2.5-.2.24v.28q.74 6.7 1.54 6.7 1.8 1.52 4.5 1.52l1.27-.5.8.25q1.8 0 2.86-5.5l1.06-.3-1.1-1.3v-1.7q0-3.1 1.5-4.1l.5-.5V63l-1.9 1.5h-.3v-1.1l.3-1.47-.3-1.27h.3l-.2-.7.6-1q-.5 0-.8-2.25l-.3.3h-.3l-.3-.2h-.2l-.7.3q-1.8-2.3-3.4-3.3l-2-1.8h.8l1.3.3.4-.5.8.2 8.6-.4 1.6.2q0-.4 4.1-1.2 1.9-1.5 3.4-1.5v.3l1.6-.5h1.3q2.5 0 4.5 4.1l-.8.3v.3q.8 0 .8.5 0 1.3-1.1 1.7h-.3q-.6-2-2.6-2h-1.8q-3.2 1-3.2 6.5v3.3l-.3.2h-.3l.3.3V66l.2.27h.23l-.54 4 .3.8h-.2l.5 4.08-.27 1.7.27 2.25-.5 1.26h.58v2.25h-.5v.3l.53 1q-.24 2-.8 2h-.5l-.5-.5-3.9.5-.8-.2-2.3.3q-2.3-.1-2.3-.5l-1.6.2-3.4-.2-2.9.5v-.2l-.2-.3-2 .3q0-.4-4.2-1.5-7.1-6-7.3-9-2.4-3.4-3.4-7l-2.2-8.5h.3l.8.3Q389 58.7 389 56h.3l-.7-3v-.25l.3-1.44-.8-1.8.25-.2V49q-.5-1.27-1.6-1.27 0-1.1-1.52-1.5V46q.55-1.05 1.55-1.05v-.2h-.5l-1.25.76h-.5V45l4.2-4.6q.4-2.24 1-2.24v-1.7l.6-2.04-.2-.26v-.2q0-1.6 1.3-2.3l-.3-.7q1.46-7.3 2.6-7.3.5-3.78 5.47-9 .76-.78 1.6-.78l-.24-.26v-.3q3.1-2.16 3.15-2.73l6-1.8zm-2.1 3.53v.25h.2l1.9-.25v-.26h-1.03l-1 .26zm8.9 0v.25l2.4.5q0-.5-2-.75h-.27zm-11 .76v.1h1.1V13h-1.07zm19.1.7v.2h1.1v-.3h-1.04zM398.2 15v.2h1.1V15h-1.04zm24.6 13.4v.2h.3q0-.98 2.9-2v-.26h-.3q-2.65 1.2-2.85 1.97zm-1.8 1.3h.3l.6-.5h-.28l-.57.5zm-1.6.5l.3.2v.23l-.2.2.25.26h.53l-.27-.3v-.2l.3-.7-.8.2zm3.96.5v.2h1.03v-.2h-1.1zm-3.98 1.4h.3l.5-.5h-.2l-.5.5zm-19 4.3l.2.23v.2l.8-.2v-.5h-.2l-.73.24zm-1.3.94l-.54 1.03h.3l1.1-1h-.8zm-2.1 1.2v.24h.3l1-.76h-.3l-1 .5zm-1.84.75l-.26.2v.2h.25l.8-.2v-.3h-.8zm-1.53.7v.5l.8-.3V40h-.8zm-4.3 1.8h.2l.6-.5h-.3l-.5.5zm-3.2 1.9v.3h.8v-.5l-.8.2zm44.5 6l-.5 1.1h.3q.9-.3 1-1h-.7zm-6.5 5.8l.8.8q2.2-3.3 2.6-3.3l.3.2h.8V53h-.7v-.3l1.3-1.5h-.2q-3.9 4.2-4.7 4.2zm6.6-3.2v.2h1.6v-.3h-1.5zm-1.8.8v.2h.6l.3-.3-.8.2zm-6.3 4.3h.3l.6-.6h-.3l-.5.5zm.6.2q0 .5-.8.5v.2h.5l.6-.8h-.2zm-2.6 1.7q0 .7-.8.7l-.3.2v.2h.3l1.4-1.2h-.5zm-2.4 2.2v.3h.3l.8-.3V61l-1 .5zm-26.9-.3v.2l.5.5-.5-.5zm30.1.5v.3h1-1zm1.5 0v.3h1.1-1.1zM394.5 65v.3q1.2 1.7 1.8 1.7l-1.8-1.7zm5.2 5.27v.5l2.34 2.3h.26l-2.3-2.8h-.3zm21.7 1.5h.3l.5-.5v-.25l-.8.72zm-2.6 1.74h.3l.44-.5h-.3l-.4.5zm-1.85.3v.3h.8v-.5l-.8.3zM414.7 75v.22h1.02v-.5l-1.1.25zm2.02.4v.27h1.05v-.24h-1.06zM401 79.25h.26q1.15-.78 2.15-.78v-.2h-.5q-1.8.6-1.8.96zm-3.7.24v.2h1.08l.8-.5h1.3v-.6h-.2l-2.9.7zM339 9.5l.52.5.54-.5 1.33.74v-.26q5.2 2.37 5.6 3.32 1.4 0 2.1 1.8.8 0 .8 1 1.6 0 2.6 3.8l-.3.7.2-.3h.3q1.6 1.7 5.6 15.8l1.3 3.34-.3.24v.3q1 1.42 3.7 10.74h.2l.5-6.1-.3-1v-1l.5-.53-.6-1 .2-1.3-.3-2.1.3-.2v-.3l-.6-1.6.8-.8h-.8v-4.1q0-3 .6-4.1l-.5-2.3.3-.3-.3-1.3.3-1.3-.3-1.3.3-.8q-.6-4.9-3.5-4.9-1 0-4 1.8l-.3-.3q3.5-4.1 6.4-4.9 0-.5.8-.5l.8.2v-.3l.8-.8h1.1q1.8 0 3.5 1.8 1.8-1.6 3.2-1.6l1 .3 1.6-.2L379 12l-.26.8.3-.2h.2q2.6 2.4 2.92 3.6l-.3.3h-.3q-1-1.6-4.4-1.6-2.7 0-2.7 4.8h-.28l.3 1.3v3q0 .5-.8.5l.8 1.22-.8.76v.25l.8.26v.5h-.3l.3 1.8v4.1q0 1.8-.58 2.8l.3.2v.2l-.2.2v.2l.24 1-.3.2.3.7q.6 0 .6 2 1.86.5 1.86 1.8v.5l.8-.5 1.3 1.5v.5q-4.8 5-4.8 6.9l.5.5-.54.8.3.2h.3l-.3 1.3v.5l.3 1-.3.3v.2l.3.2v.2l-.3.2v.3l.3.8-.27.3v.3l.3.2v.2l-.3.3v.3l.3.2v.2l-.3.7.3 1.5-.5.5v.8l.6.8v.5l-.3 1 .3 1-.6 1.5.5.5v.3l-.3.3.2.2v.6l-.2.2.3.3V72l-.5.5.5 1.8-.3.24q.2 2.53 1.9 4.6h3.2l2.4-2.07.3.2q-2.1 4.8-5.9 6.1l-4 1.6h-.8q-7.8 0-7.8-1.3l-1.6-.5q-3-1.9-5.4-10.2l.3-.3h.3q-1.4 0-1.4-1.53l.3-.8-.6-.5.5-.75q-1.1 0-1.1-2.3l-.3.2h-.3l-.6-1.5.6-.5q-.9 0-1.1-1.6h-.3l.2-1.8v-.5q-1.4 0-1.9-3.9-1.6-1.7-4.3-12-1-1.3-1.6-4.1h-.3V48l-.5.77.6 1.8-.5 2.3.6 1.5v.7l-.3 4.83.2.27v.25l-.3.3v.26l.2 3.6v1.3q0 .5-.8.5l.8 1.08-.3 1 .3 2.58-.25 1.5q0 4.24 4 6.66h.2v-.5h.8q.9 0 1.9-.77h.3l.52.5q-3.1 3.07-5.4 3.07-2.1 1.53-4.3 1.53-1.8 0-3.7-1.3l-2.7 1h-1q-.5 0-.5-.75h-.3l-.8.52q-.86-.85-4-1.56l-3.5-2.8v-.27h.5l2.1.5h.8l1.4-.26.6.5h.3l-.3-.2V78l2.4-2.55-.53-1.8.58-1.27-.5-2.55.3-1.27-.3-.77.23-.3-.3-1.3v-2.1l.3-1.1-.23-1.1.3-2.8-.2-3.4V55l.3-1.55-.2-1.3v-.5l.3-.28q0-2.8-2.9-4.84l-1-1.56v-.74q4-3.5 4-6.1l-.3-2.8v-3.8l.24-2.3-.3-1.8q0-2.2 2.4-3.07v-.26h-.3l-1.6 1-.53-.5v-3h.5l-.4-1.03.2-.8q-.6 0-.8-3.02l-2.14-1.5h-1q-1.56 0-2.96 1h-.5V16q4.8-4.6 5.6-4.6l2.4-1.3q.7-.5 3.5-.8zm25.38 5.6q0 .6 1.34.76 0-.58-1.34-.77zm3.74 2.04v.5l1.6.52h.28v-.26l-1.88-.8zm2.68 1.53l.53.5h.54v-.5h-1.07zm-31.55 4.1V23l.27.75h.27v-.26l-.3-.8h-.3zm-1.33.5v.25l.27.8h.2v-.7l-.3-.24h-.3zm-1.34 2.04h.27l.53-.5h-.26l-.54.5zm40.1 18.4l-.54.5-.8 1h.27l1.4-1.3v-.2h-.2zm-2.14.7l-.27.8v.5h.27l.27-1v-.2h-.2zm.27 2.3v.3h1.1v-.2h-1zm-1.8.8h.3l.6-.5h-.2l-.5.5zm-1.6 1.5v.5l.8-.2V49h-.8zm-3.2 2.6h.3l.6-.5h-.2l-.5.5zm3.2 1.3l-.2.3v.3l1.6-.2V53h-1.3zm-5.6.3l-2.6 2.1v.3q3-1.7 3-2.3h-.2zm-4.3 2.8l-.3.3v.3h.2l.8-.2V56h-.8zm-2.4 1.3q0 .5-.8.5l-.3.3v.3h.2l1-1h-.2zm-2.4 1.6h.2l.8-.2V58l-1.1.76zm-2.7 1.3v.5l.8-.2V60l-.8.27zm-12.9 5.1v.7h.5l1-1-.2-.2.3-.2-1.6.8zm-1.9 1.8h.2l.6-.5h-.3l-.5.5zm-29.7-58h.8q2.8 0 6.1 5.3l.6 1.9h-.3q-1.4-2.1-4.1-2.1-1.4 0-2.2 1.6l1.2 5.8q-.5 0-.5.9l-.2-.3h-.3v1.4h.4l.3-1h.6q2.2 19.4 4.6 19.4l.6 1.6q1 0 3.4 2.4v.3q-2.2 2.6-3.3 4.8l5 27.9q.9 2.1 2.5 2.1h.8q1.6 0 3.4-2.1l.3.3q-4.8 6.4-9.1 6.4l-3.3-1.9h-.6q-3.3 2.1-4.7 2.1H310q-3.9 0-7.12-5.3h.25q3 1.3 4.7 1.3 1.66-.2 1.66-2.1l-.8-4.2 1.6-1h-.3l-1.3.6-.4-.3v-3.2q-1.4 0-2-7.9l-.3-.2V63h-2.7l-3-.23-.9.24-3.9-.8q0 .7-2.2.9-1.6 8.8-3 12.9l-.3 4q.5 1.6 2.2 1.6 1.3 0 2.7-1.1v.5q-1.2 2.5-5.5 4.8h-1.1q-2.3 0-4.7-2.3h-.3q-2.4 2.1-4.4 2.1h-1.2q-6.6-1.6-6.6-5 1.8 1.1 3.6 1.1 3 0 4.4-4.7h.3l-.3-.3v-.8l2.5-6.6-.3-.2v-.6l1.1-4.5-.3-.2 2.4-8.5-.3-.2v-.2q.4-.5.8-3.7-.8-1.9-3.4-4.8.5-1.1 4.1-3.9l1.9-2.6q0-2.3 2.7-3.4V36l-.8-.25q-.2 1.35-.8 1.35h-.3v-.6Q292 23.8 292 21l.6-2.1q0-3.7-3-3.7l-2.5 1.04v-.27q3.27-5.2 6.08-5.2 0-.54 1.34-.54v.3l.2-.3h.6v.54h.6V10q3.5 0 7.15 3.44 3.5-4.2 6.1-4.2zM296.8 12v.32h.3l.88-.4v-.28h-.34l-.8.2zm-2.2 2.7v.24h.3l1.13-1.1h-.27q-1.12.5-1.12.9zm12.1 11.87v.53q1.2-.4 3.3-2.37h-.23q-1.14.3-2.48 1.86h-.6zm-1.9 1.87h.3l1.06-.6v-.5h-.2l-1 1.1zm-3.6 2.1h.28q1.27-.5 1.4-1.1v-.2q-1.67.88-1.67 1.4zm-.52-.5l-.54 1h.5l.2-.9v-.3h-.3zm3 .8l.87.7 1.6-.3v.5h.9q0-.8-1.4-.8v-.3l-.28.28h-.2l-1.4-.26zm-9.08 2.9v.5l4.6-2.6v-.3h-.57l-4.2 2.3zm6-2.4q-.6 4.7-1.97 4.7l.2.2-.8 3.9.2.8q-1.4 3.1-3.4 11.3l-.3.3q.9 0 .9.8l.3.22h.25l1.1-.24 5.5.5q0-.5 1.7-.5l-1.7-11.64.27-.74q-2.2-6.55-2.2-9.75h-.3zm6.9.5l.9.8.3-.3V32l-1.1-.26zm2 1.1l.8.7v-.3l-.5-.5h-.2zm1.4 1v.2l1.1.3q0-.6-.8-.6h-.2zM292.1 35v.7l1.1-.8v-.3l-1 .2zm-5.3 31.6v.5l.9-.3v-.3h-.8zm-1.9.5v.2h.4l1.1-.3v-.24h-.53L285 67zm-1.6.2l-.3.2v.25h.3l.8-.27v-.23h-.8zm31.5 3.4v.5l.8-.2v-.5l-.8.23zm-.8 1.87h.3l1.95-.57v-.5q-2.2.42-2.2 1.05zm-2.43.5v.25h.5v-.8l-.53.5zm-.8.25l-.37.76h.6v-.72h-.25zm1.3 2.35l.87.8v-.3l-.6-.5h-.3zm.87 1.1v.3l1.03.5v-.8h-1.04zm1.6 1l.83 1.3h.57v-.84l-1.06-.5h-.35zm5 3.2v.22q.7 1.3 2.2 1.3l-2.2-1.6zM263.9 5.8q5.6 1.73 5.6 4.35h-.3l.26.26v.5l-.3.3v.2l.74.7q0 1.8-1.52 4.6 1.8 2.7 1.8 5.1 0 3.6-6.08 4.6v-.2q1.2-1.2 1.52-2.7 0-1.7-3.4-1.7l-2-.3-2.8.5-1.3-.3-2.6.3h-.5l-1.53-.3-1 .3h-.5v-.2l-1.8.3h-2.6l-.3 2.5v1.9l-.3.3v.2l-1.5-.9h-.2q0 .5 2 1.5l.2.2v.4l-.3 2 .3 1-.3 1.8.2.2-.6 4.7.5.5-.3.8.2 2.7v.2l-.3.3.3.8-.5 2q0 3.3 4.6 7v.8q-4.3 4.8-4.3 5.8l.3 2.7q-.2 2.5-.6 2.5l.3.3v.3l-.3 1 .2.3v.2l-.3.77.2.3-.3 1 .5 5.3-.6 4.6 2.4 2.7 1.4.5h.3q1.2 0 3-.9l.3.3v.3q-5.9 5.8-10 5.8-2.3-.4-4.1-2.2-1.4 1.6-5.8 1.6-3.2 0-8.4-5.8l.3-.3q1.3.8 2.5.8h1.8q2.5 0 2.5-4.4l.2-2.9-.3-1.06.2-1.9-.3-7.6.6-.5-.6-2.7.2-.2q0-2.5-4.1-6.6.3-.8 4-3.9h-.5l.8-2.9q-.5-1-.5-3.8l.7-1-.7-.7.5-2.4-.5-3.64.7-.26-.78-3.2.22-.7-.3-3.4.3-.9-.3-1h.2l-.3-.2v-2q-1.8 0-1.8-.94l-2.07.7-.26-.23-.6.5-3-.2-2.22.3-.8-.28-1 .3-1.8-.2-1.76.22-1.6-.27q-2.1.2-2.1.5l-.2 1q0 1.9 1.5 3.1v.2q-4.4 0-6.5-4.6 0-1.2 1.5-4.1-2-1.3-2-3.6v-1q0-4.3 6.6-5.6V9q-1.1 1.3-1.1 2.2v.8q0 1.7 2.8 1.7l1.57-.2h.5q2.5 0 2.5.7h.3q0-.7.6-.7h.2l1.8.2 2-.2 5.1.5 3.6-.4 1.24.5 8.1-.46.8.2 1-.2 1 .2 3.6-.2h2.5l2.2.2.2-.2h.2l5.1.5q5.4-.6 5.4-1.9.8-.96.8-2-.25-3-1.45-3V6zm-8.9 8.76v.25h1v-.2h-1.02zm-4.35.7v.25h1.8v-.4l-1.8.2zm-1.72.25v.3h1v-.2h-1zm-2.35.3v.2h1.08v-.2h-1.1zm-3 .5v.2h1.28v-.2h-1.3zm-2.53.5v.2h1v-.2h-1zm-2.8.5v.3h1.6v-.2h-1.54zm-6.6 1v.2h1.8V18l-1.8.26zm-3.1.2v.2h1.8v-.3h-1.8zm-1.22.2v.2h1v-.2h-1zM223 19v.27h1V19h-1zm7.9.27v.26l1 .24h.25v-.25l-1.07-.24h-.2zm-17.6 1.2v.27l1.54.24.3-.27v-.2h-1.9zm28.2 19.24v.2h.27l.75-.2v-.2h-.2l-.84.3zm-2 1.2h.27l.47-.5H240l-.48.5zm-5.88 0v.3l1.8.9v-.5q-.6 0-1.3-.7h-.54zm4.6.7h.25l.47-.4h-.22l-.47.4zm-.8 1.5l1.25 1v-.4l-1-.5h-.26zm2.3 1.5q0 .5.7.5h.24V45l-1-.24zm1.2.5v.3l.76.8h.27l-1-1zm1.76 1.2l-.26 1.1.8.2.7-.2v-.2l-1.3-.8zm-3 23.2l.46.5h.3l-.5-.5h-.2zm1 .7v.3l.73.3h.3v-.3l-.7-.2h-.3zm1.74 1.1v.5h.5q0 .8.5.8v-.3l-1.07-.9zm-7.1 5.8v.3h.7v-.5l-.76.3zm-2.6 1.3v.3h.74V78l-.73.26zM186 9.1q3.27 0 8.22 2.93v.77q-1.88 0-2.8 1.2h.2q1.4-1 2.6-1l.26-.2v-.25q1.34.32 3.34 1.9 2.28 0 2.28-2.16h1.07l-.3-.3v-.3q2.1-2.7 2.55-2.7l.27.2v1.2l-.6.5.5 1.9-.6 3.7.5 3.7-.3.9.3.3-.3 2.7.2 3.7-.6.4.2.3v.2l-.3.2v.2l.5 3.4v1q0 1.8-.8 2l-.3-.3h-.3l-1 .2-.3-.2-1.4.2H194q-.8-.2-.8-1.5v-3.4l.3-1.2-.56-.5v-.5l1.1-1.2h-.5v-3.7l-.3-.2V23q.6 0 .8-1.2l-.8.45H193q0-1.3-2.06-3.48v-.2l.25-.2v-.27h-.2l-.2.24h-.2q-2.7-.75-5.4-.75-5.9 0-7.2 7.6 0 7.5 8.7 12.8l2.6-.3h2.6q.8 0 .8 2.7h-.3l1.6 3.4q9.8 8.4 9.8 12 .4 0 1 2.5l-.3.9v.8l.5.7-.3 1.4.3 1.2-.5 1.2.2.2h.2q-.4 5.2-1.8 5.2l.2.9q-3.8 8.8-7.7 10.4-1.5 2.2-7.5 3.4-1 .5-2.8.5H183q-3 0-10.06-3.9l-3.4-3.6q-.6-1-2.84-2.4-2.3-4.9-2.3-6.1l.25-1-.25-.9.3-1.4-.3-.2v-.2l.3-.3V65l-.3-1.22.3-1.9-.27-.27v-.2l.53-2.5-.6-1.4v-.7q.1-1.4.7-1.4h1.5l.2.3.8-.2.25.3h.2q2.5-1.4 3.9-1.4h1.6q1.1.3 1.1 2.2v1l-.6.7v.3l.5.7v1L174 62l.52.5v1.3l-.3 1.2.5 3.5q-.56 0-.56.7.6 2.7 4.35 6.1 3.1 2 4.6 2h3.1q1.2 0 3.9-2.9l1.6.5h.3v-.2l-1.6-.23v-.5q1.3-2.7 1.8-7.87-.8-3.2-3.6-6.8-3.1-3.5-4.1-3.5l-4.4-.23-2.6.26-.3-.2V55l.2-.24v-.2l-.5-1.97v-1.8q-1.6-3.2-4.6-4.7-2.7-3.3-4.6-4.4l-2.4-4.5.2-.8-.7-2 .2-.2-1-4.2v-.4l1.2-6.9.2-.3-.2-.2V22q1.8-5.8 8.7-10.1l6.7-2.4 4.7-.3zm1.53 5.86v.52l.8-.28v-.25h-.8zm-3.6.77v.46l.8-.2v-.3h-.8zm-2.55.97v.26h.47l.8-.25v-.2h-.26l-1 .3zm-8.75 3.9h.27l1.53-.44v-.26h-.26q-1.58.25-1.58.7zm.8.5l-.27.27v.26h.27l.74-.26v-.25h-.78zm-3.07 1.74l-.27.26v.24h.3l.7-.24v-.27h-.7zm32.08.5h.26l.47-.5h-.2l-.57.5zm-4.88 2.18v.5l2.07-.93v-.5l-2.07.9zm-31.35 0v.27h1v-.3h-1zM195 27v.26h.54l1.1-.7h-.25L195 27zm-17.44 8.37v.26h.53l.7-.25v-.26h-.5l-.8.25zm-1 .5v.46l.73-.25v-.2h-.8zm-1.8 1.22h.26l.42-.5h-.2l-.54.5zm-1.55.7h.3l.5-.5V37l-.7.7zm-2.8 1.2h.2l.6-.5h-.2l-.5.4zm-1.8 27.2v.2h1.3v-.2h-1.2zm3.6 1.4v.4l1.8.5q0-.4-1.8-1zm21.1 6.6v.2l1 .2h.6v-.3l-1.3-.3h-.2zm2.6 1v.2l1.8.2q0-.5-.8-.5h-1zm2.4.4v.5h1V76l-1-.24zM120.5 9q2.74.68 4.94 2.8 2.28-2.5 3.95-2.5h.2q3.3.8 5 3l-.6.6h.5l.8-.2 2.9 3.2v.28l-2.2-.56h-1.6q-1.2 0-2.2 5.03l.2.25-.6 4 .2 2.3-.6 3.52.5.5-.3 1.25.2 1.5v.24h-.8l.4.8-.3 1.5q0 4 5 7.8-1.9 2.4-2.6 2.8l-.3-.2q0 1.3-1.1 1.3l.2.2v.3l-1.4 2.8.5.8v.5l-.3 1 .3 1v1l-.8.7q.3 2.3.8 2.3l-.3 1.5.3 5.1-.6.8.5 2.2v.5l-.3.3q2 7.8 6 7.8h2.1q5.7 0 6.8-6.7l-.2-2.3v-2l.4-.7-.5-.5v-.5l.4-.7-.3-.7.3-.2-.5-.5.4-4.8-.3-3h.2l-.4-3.3.2-.3v-.3q0-1-1.6-3.5v-.5l-.3.2h-.2q0-1.1-1.1-1.1l-1.2-1.5q4.22-4.5 4.22-5.3l.2-1.2-.2-.8.2-.3h.2l-.5-1.3h.2l-.2-.3.2-2.5-.2-2.5.4-3.8-.5-.5.2-.3-.2-1.2.2-.3-.2-.3v-2.7l.4-.5-.3-1.3v-1.7l-1.8-2H142q-.8 0-1.8.7h-.1v-.2q2.2-3.9 5.8-5.5l.8.2.8-.8h.6q1.2 0 3.4 2 1.6-1.5 3.4-1.5h.5q6.55 2.3 6.55 5l.5.5v.2h-.2l-3.7-.8q-1.8.6-1.8 3.2l.2 1-.1 1.6.5 1.5v8.3l-.2 1.4.2 1.6-.2 1.5.2 1.8-.2.8q0 1.2 4.4 5.8v.7q-3 2.7-4.68 5.5l.3.2h.2l-.5 3 .5 1.3-.2 1.3.2 2.7v.6l-.5 1.4.47 1.3-.2 3 .2.7-.44.5.46.48v.25q0 1.8-.75 2l-.8-.3q0 .5 1.1.5l.3.3v.2q0 3-3.5 8.8-4.9 7.3-14.2 7.3h-2l-1.6-.27-1 .3q-6.9-1-10.8-3.5-4.2-3.6-5.4-8.3l.3-.3-1-6 .3-1.7-.3-2.3.6-1.72q-.5 0-.8-5.5l.6-2.07-.5-1.4v-.7l.3-1q0-1.8-4.2-6.2l4-4.5q0-.9 1.1-2.5-.6 0-1-1V36h.3l-.2-1.7q0-4.8 2.4-4.8V29h-.5l-1 .5-.5-1.45v-.77l.3-1-.5-1.3v-.43h.3q-.4-8.85-2.3-8.85H113l-.8.5h-.3v-.74q2.3-4.1 9-6.23zm-2.94 7.58v.57l1.87.5h.53v-.25l-2.4-.8zm6.34 2v.3h1.27v-.26h-1.27zm1.8.5v.3l1.6.5h.28v-.24l-1.6-.5h-.27zm25.47 2.5q2-.92 2.4-1.7h-.26q-2 .8-2.1 1.7zm-3.14 1v.3h1.34v-.3h-.54v-.22l-.8.25zm-22.6 4.6v.5l.8-.3v-.24h-.8zm-2.06.76v.27h.27l1.28-.2v-.3h-.74l-.8.2zM150.9 45.5l.8-.25v-.5l-.8.76zm-31.2 1.73v.26l1.06.5h.2q0-.4-1-.8h-.27zm7.88 5.05l-.27.22v.2h1v-.2l-.7-.25zm-5.55 6v.23l2.12.8q0-.4-1.87-1H122zm27.85.5v.24l.54-.5v-.27l-.56.5zm-21.8 2.2v.24l.2.26h.8v-.22l-1-.25zm1.53.75V62l1.7.5q0-.43-1.3-.75h-.2zm19.8 4.73v.5l1.1.23v-.5l-1-.3zm-2.1.5l.6.5h.3l-.5-.5h-.2zm4.5.23v.2l1.1.2q0-.5-.8-.5h-.2zm1.6.2v.5h1.3v-.3l-1.2-.3zm-4.7.5l.6.5h.3l-.5-.5h-.3zm6.6.2v.2l.8.2h.3v-.3l-.8-.3h-.2zm-4.4.7v.2l1.6.9v-.5l-1.6-.8zm2.4 1.7q0 .5 1.1.5v.5h.8v-.3l-1.8-.8zm1.8 1.3v.2l1.1.2q0-.5-.8-.5h-.3zm-29.1 6v.2h1.3-1.3zm-1.2.5v.5l.8-.3v-.3h-.7zm-43-75.8H83q3.14 0 10.9 7.7l.33 1H93q-2.48 0-2.48-.7l-2.07.7h-1.07q-.2 1.9-1.07 3v.3l.4 2-.3 1.7q1.1 0 1.1 4.1l-.7.6q1 0 2.5 8.4 1.1.7 1.1 1.7l-.3.3v.3l1 2.8-.4.3q.7 0 1.1 2.7l-.3 1 .7.6-.3 1q.8 0 2.2 5.7 4.1 3.2 7 6.4v.3l-4.2 5.1v.9l.3 2.4h-.7v.3l3.2 11-.7.7q1.1 0 3.2 11 2.6 6.7 5.3 6.7h1q1.4 0 3.2-1.3l.4.3q-4.3 7.4-9.8 7.4 0 .4-2.4.7-1.2 0-6.3-2.7-1.7 1.7-5 3.3H87q-4.1-.7-8.1-4.1L75.2 92l.3-.3h.36l4.2 1.65h.75q2 0 2.8-2l-.3-.3v-.4l.3-1.66-1-4.4v-2.3q-1-1.4-3.9-16.1h.4l.4.3h.4v-.3l-1-2.7v-3.4q-.8 0-1.7-4.4l.8-.7q-1 0-1-.7V54l.4-.3q-1.4-2.43-3.1-12.46h-.4q-1.8 4.8-1.8 7.4-.8 8.44-2.4 8.44H69v.3l.7 1.04q-1.7 10.8-2.86 10.8v1.02q0 2.62-2.46 7.4l.64.65-.67.7v1l.3 1.7q-1.6 10-2.83 10l-1.74.3H46.2l-1-1v-5l-.4-2 .4-1.4-.4.3h-.66l.33-.3-.33-.4V79l-.74-5.42-.33.38h-.34q-1.4-10.73-5.6-31.93h-.4q-1.28 10.4-3.5 10.4l.35 1.67-.34 1.72h.67v.96q0 .7-1 .7v.64h.8q-3.2 19.55-5 21.85l.4 1.72q0 1.6-.7 1.6l.4.3v.4L27 92.7v.63l.34.38v.4l.4-.3h.3l1.07.4q0-.5 2.1-1.3v.7q0 3.7-6.7 7.8h-2.1q-2.2 0-4.3-2.7-4.1 2.7-5.2 2.7-4.7 0-8.8-9.1h.4q3 2 4.1 2h1.1q3.6-1.3 3.6-6.4 1.6-2.8 3.2-10.7v-2.4l1.7-3.7-.7-.6V70l1.1-1.03-.4-.32 1.4-5.42-.4-1.34.4-1.4q-4.3-4.6-4.3-6.4 7.8-6 7.8-9.7 0-1.7 1.4-4.1v-.4l-.3-.3v-.3q.2-1 1.8-2.4h-1.1l3.6-14.1-.3-1 .6-3h.4l.4.3h.3v-.3l-.3-.4v-.3l.3-2q0-5.5-3.9-5.5l-2.8.7v-.7Q29.5 3.3 34 3.3q2.22 0 5.63 2.3 2.45-2.3 5.3-2.3 4.1 0 10.54 7.73l-.32.3h-1l-1.02-.7q-3.5 1.77-3.5 5.47l2.04 10.4-.34.3v.3l1.4 2.37v3.4l.32.3v.34l-.6.7q1.4 0 1.8 4.4l-.3.3q.9 0 1.76 8.8.8 0 1.8 8.5h.7q0-3 1.4-4.4V50q0-3.37 1.8-4.33l-1-.37q1.2-6.7 2.4-9.4l-.3-2.02 1.4-.3V33H63v-1.4l.35-.4-.3-.3v-.32q2-11.12 3.5-11.12l-.66-3.32.3-.38v-.32Q65 10.77 64 10.7h-.36l-2.8.7-.3-.3Q65.5 3 70.87 3q3 0 5.6 3.07h.34q0-.7 1.1-.7.9-2.7 3.5-2.7zM29.1 9.4v.7h1v-.3l-1-.4zm7.7 1.33v.7l1.4.32v-.64l-1.4-.3zm-2.5.7v.64h1.08v-.35l-1.07-.32zm.4 1.34l-1.8 1.63v.33l2.48-1.66v-.33h-.67zm5.96 1.63v.7h1.08v-.37l-1.06-.32zm3.2 1.36l1 1h.4l-1.05-1h-.3zm39.38 3.7v.3l.67-.63v-.32l-.6.7zm-6 4v.7l2.13-.7v-.3h-.77l-1.4.3zM73.7 25.2v.64l1.4-1.04h-.34l-1.07.4zM67 30.9v.33l.67-.64v-.4l-.67.6zm-14.1 9.8h.4l.67-.72h-.33l-.74.7zm-1 .94h.33l.67-.64h-.36l-.67.64zm-8.8 7.4h.3l1.8-1.33h-.4l-1.72 1.4zm6.33 1.74v.33l1.07.4h.3v-.3l-1.07-.3h-.33zm2.47.65v.3h1.4v-.3h-1.4zM31.4 53.5v.63q1.4-.5 1.4-1.02h-.33l-1.07.4zm30.94 0v.3h1.4v-.3h-1.4zm2.14 0v.63h1.4v-.32l-1.4-.3zm-36.2 2.3h.33l.8-.7H29l-.72.7zm51.32-.38v.38H81v-.38h-1.4zm-52.7 1.36h.33l.74-.64h-.34l-.73.64zm39.02 7.73h.34l.73-.6h-.4l-.8.7zm-1.72 1.1h.3l.64-.6h-.35l-.7.7zm-1.87 1.1h.4l.67-.7h-.32l-.74.7zm-5.28 3.7v.3l1.06-1h-.3l-.7.7zm-2.4 1.4v.7l1-.3v-.6l-1 .3zm-2.8 1.3v.7l1-.3v-.6l-1 .3zM24.73 87.4h.4l.67-.7h-.35l-.74.7zM23 88.72h.34l1.07-1.03h-.3l-1.1 1zm-4.53 3h.33l.74-.64h-.4l-.66.62z" font-size="133.8" font-family="Carnivalee Freakshow" letter-spacing="0" word-spacing="0"/></svg>