<svg xmlns="http://www.w3.org/2000/svg" width="938.71" height="112" viewBox="0 0 3914 467"><path fill="#fff" d="M2281.92 13.26c-7.36.08-14.68 1-23.92 1.65l-12 .6c-4.07.2-6.58-1-12 0-8.08 1.2-20.8 7.6-28 11.7-2.3 1.3-11.8 7.1-13.72 7.2-2.42.1-6.28-4.1-8.28-5.7-4.3-3.4-10.54-7.4-16-8.3-3.55-.6-12.75.8-16 2.3l-7 4.2-9 4.2c-10.57 5.8-25.22 18-30 29.1 9.72-1.8 22.65-13.4 32-9.4 3.33 1.4 9.3 5.3 11.03 8.5 1.53 3.1.3 6.7 0 10l-1.85 25 .95 9-1.13 12 1.1 19-.63 9 1.34 8c.1 3.3-1.4 4.7-1.1 8 .5 5.5 2 2.8 1.7 12v6c.7 8.2-2.2 16.3-6.7 23-3.5 5.4-7.6 10.2-11.7 15-1.7 2.1-4.8 5.3-5.2 8-.5 3.9 3.9 7.6 6.4 10 3.1 3.1 13.5 12.8 15.1 16 .5 1.8.2 3.2 0 5l2.1 23 .6 6c0 5.5-2.7 4.1-2.7 15v43l1.1 12.8-.7 6.3c.2 3.3 1.1 4.6.9 9l-1 12 1.6 16.3c-.3 3.5-4.6 11.6-7.3 13.8-8.1 6.6-25.6-1.6-35.3-2.1 2.6 5.7 6.7 9.6 11 14 10.8 10.8 25.8 24.8 42 25 9.5.1 12.9.3 21-5.4 4.3-3 6.7-4.7 9-9.5l13 9.5c12.5 8 29.8 13.3 43 3.8 8.1-5.7 10-11.6 14.2-16.2 7.5-7.9 11.5-9.5 14.8-21.1-7.9 1.3-10.9 7.7-19 7.9-10.1.3-22.8-14.1-22.5-23.8.3-11.2-.4-13.4-2.4-24l3-1-1.9-12 2-13-.8-7.8V329l-1-6.98.8-7 1.1-20v-47c15.8 0 23.1-.37 39 1.87 6.2.8 13.5 2.1 17.7 7.2 5.5 6.5.7 15.7 7.3 22.9-2.6 3.9-.9 7.3-.7 12l-.9 12c-.3 4.2.7 5.6.8 8.6l-1.1 8.4.7 8v13c.1 6.1-5 13.2 1.3 18-1.9 6.3-4 22.8-2.3 29 .68 2.3 3.9 6.8 5.37 9h1v1l-1-1-5-1 1.2 14c1.2 3.6 9.1 13.8 12.1 16.4l6.5 4.9 8.2 9.6c6.44 6.4 14.84 10 24 9.9 8.3-.1 26.46-8.9 34-13.1 10.6-5.9 25.55-15.1 28-27.9h-5c7.8-2.7 9.54-3.1 10-12-6.2 1.2-11.3 6.2-18 4.5-3.85-.9-11.15-6.1-13-9.6-1.7-3.3-1.8-13-2.3-17l-2.8-22-2.6-14c-.4-4.3 1.2-11.5 1.8-16v-8.6l1.7-6.4-.72-16 .96-28c0-10.6-1.4-8-3.97-14.3-1.1-2.7-.3-3.3-2.4-7.7-4.9-9.9-11.2-14.9-20.6-20.3-6.7-3.8-13.6-7.6-21-9.7 5.7-13.4 19.3-20.2 26.5-31 7.9-11.9 14.5-25.8 17-40 .7-4 1.6-12.1 1.4-16l-1.3-9 1.4-12c.46-38.9-33.6-78.3-70-89.2-9.34-2.8-16.7-3.6-24.07-3.5zM3349 26c1.36 4.22 2.95 4.53 4.7 8 3.14 6.23 1.16 13.82-4.08 18.35-3.18 2.75-10.45 4.03-14.62 4.73-9.63 1.62-16.57-.37-26-.85h-16l-22 .6-18-.8-14 .97-15 .9c-6.5.37-8.42-1.7-13-1.64l-15 1.66-7-1c-7.92-.5-14.07-.84-22 0-4.47.1-9.74-2.55-13 1.08-5.64-1.83-7.02-2.12-13-1.85-4.35-.04-8.7 1.34-13 0-4.22-1.07-8-4.4-7.36-9.15.54-4.14 3.72-6.24 5.36-12-11.03 2.23-24.6 6.34-28.87 18-1.3 3.52-1.17 7.3-1.13 11 .05 4 .18 6.4 2.22 10 1.46 2.55 4.13 5.03 4.28 8 .17 3.4-4.6 10.76-4.2 16 .64 8.44 11.98 18.02 19.7 20.2 3.34.96 6.57.8 10 .8-2-4.73-8.37-12.4-4.98-17.7 2.83-4.42 9.77-2.78 13.98-2.48l9-.64 18 .7 8-.84 11 .8 12.72-2.55c2.77.1 3.02 1.9 9.28 2.7l.7 12v23c.03 6 3.9 10-.7 15 .85 3.4 2.5 14.7 2.17 18l-1.1 7v7c-.15 2.1-.9 3-.93 6-.05 11.5 4.08 11.9-.62 25-2.13 5.9-6.2 8.1-10.5 12.1-1.7 1.6-4.65 4.3-4.68 6.8-.04 2.7 3.67 6 5.37 8 3.7 4.2 9.3 11.5 10.7 17l1.4 15-1 6v41c0 7.6.8 20.8-1.9 28-2.9 7.9-8.4 8.1-15.7 8-7.3-.1-7.5-1.8-14-3 1.7 5.6 5.9 8.9 10 12.9 13.8 13.1 23.3 17.3 42 13.6 5.8-1.2 7.9-3.2 9.9-3.8 3-.8 4.9 1.3 7.2 2.7 3.7 2.2 7.6 4.1 12 4.4 12 .8 26.2-8.8 35-16 4.5-3.7 9.8-6.6 9-13-4 1.1-7.8 3.4-12 3.8-7.7.7-18.1-8.6-19-15.8l1.5-16-1.6-23v-16.1l1.5-15.9c0-3-.9-8.7 0-11.4.8-3.1 6.4-9.8 8.6-12.6 2.6-3.4 9.8-10 9.6-14-.2-3.1-3.5-6-5.5-8-4.4-4.6-7.6-7.4-10.9-13-6.2-10.6-1.7-14.3-1.3-25-.1-7.1-2.1-9.5 0-17l-2.8-1c2.3-9.4 2.6-24.3 2.1-34-.3-7 2.1-9-3.1-12 2.4-4.4 2.3-9.1 2.9-14 .3-2.6.1-5.4 2.5-7 1.9-1.3 5.5-1 7.7-1.2h24l11-.7 6 .6c4.8.3 8.5-1.3 13-1.7 4.9-.4 19.3.9 22.2 5.1 3.1 4.5-3.2 11.4-5.1 15.7 14.2-.7 28.7-6.6 28-23-.2-4.7-1.5-8.7-3.4-13-.8-1.9-3.2-5.9-3.3-7.6-.2-5 10.6-17.2 2.9-22.4.7-3.4 1.3-6.6 0-10-2.6-8.9-16.6-14.7-25.2-16zm-1137 8l-6 1 6-1zm45 3l-6 2 6-2zm1379.53 1.97c-1.85 0-4.2.03-7.53.03-5.17 0-11.06-.4-16 1.22-4.06 1.35-4.76 2.8-8.1 4.55-7.4 3.87-14.98 7.65-21.9 12.45-8.5 5.88-6.9 7.2-11.62 13.74-2.23 3.1-4.52 4.53-6.38 8.08l-2.88 7.68-10.25 20.28c-3.03 7.08-11.1 36.25-12.4 44l-1.5 15-2.35 13c-.6 5.85.6 4.38-.82 12-1.92 10.3-1.47 9.74-8.53 18-2.28 2.66-8.4 8.66-8.4 12 0 4.16 6.3 8.4 9.12 11.1 5.7 5.48 11.3 13 13.1 20.9l.5 11c.9 7.76 4.2 22.53 6.5 30 1.9 6.24 4.4 6.53 5.8 10.42 2.5 7 4.2 18.6 10.8 22.58-.2 1.83-.6 3.07 0 5 .6 5.04 12 18.6 15.7 23 1.8 2.22 6.6 7.68 8.7 9.4 5.1 4.24 25.2 14.67 31.8 16.08 2.7.6 5.2.52 8 .52 10.9.02 21.9-1.54 32-5.87 11-4.76 10.8-7.26 19-13.37 10.7-8.04 16.4-12.67 23.1-24.76 2.1-3.85 5-8.8 2.8-13 3.5-4.9 1.8-8.62 2.1-14l.8-12-1.8-19 .8-7.96h-19l-16.9 1-8.1-1.04v26.72c.2 4.94-.9 6.4 2.9 10.28-3.5 4.45-2.5 6.96-4.5 12-2 5.07-4.6 8.23-8.5 11.9-5.2 4.77-13.9 10.68-21 11.06-12.6.65-18.9-8.04-22.7-18.96-3.2-9.04-3.4-18.44-3.4-27.9l.7-7.14-.7-6.55.8-7.4-.9-8.2-.6-9.7c.1-3.7 3.3-15.8 5.4-18.7 3-4.1 14.7-12.4 14.3-17.3-.3-2.9-5.7-7.7-7.7-10-8.6-9.8-10-8.5-10.3-21l-1.3-13.1 1.3-14.9-1.2-8c-.5-5.9 1.2-7.7-.8-15 4.5-4 .5-17.2.7-23l1.6-8c1.9-10.2 5.2-24.9 16.7-28.5 4-1.2 9.8.2 14 1 4.9.9 6.9 1.3 11 4.5 4.6 3.5 8.2 7.9 10.6 13.2 2.1 4.6 3.6 11 3.6 16 0 6.5-3.7 5.4.7 12-4.8 2-1.7 4.5-2.2 9v24c-.5 1.6-.2 2.5 0 4l8.1 1h29.1c3 .1 8.1.6 9.3-3.1.7-2.2-.8-4.6-.8-6.8l1.3-7-.9-9 1-21-.7-8 .5-15V70.5c0-4.54 1.4-7.6-2.8-10.44l2.2-4.3V41c-6.65 2.18-14.2 16.05-21.2 15.8-3.2-.13-9.2-5.45-12-7.36-6.1-4.2-6.6-2.67-11-4.3l-5.3-2.65-5.7-1.2c-9.8-2.2-10.9-2.4-16.5-2.4zm-1113.1.95c-4.57-.05-9.16.1-13.43 1.86l-7 3.22c-6.9 2.46-8.37 1.58-14.9 6.9-6.13 4.97-7.04 8.92-9.6 11.5l-8.46 6.6c-6.16 5.48-11.34 12-15.67 19-3.56 5.75-4.3 11.77-6.82 18l-6.65 14c-3.1 9.36-8.03 31.08-9.47 41l-1.64 14c-1.3 6.25-7.5 12.37-11.7 16.96-2 2.16-5.8 5.98-5.6 9.05.3 6 15.9 15.7 17.5 22 1.2 4.6-.3 15.1 0 20 .2 6.1 1.9 6.7 2.6 11l1.8 19c1.1 7.4 1.6 15.7 8.4 20-3.6 7.8 4.1 16.5 6.1 24 2.7 10.8 4.1 10.8 9.7 20 10.6 17.6 26.9 33.6 47.2 39.6 13.4 4 12.7 1.5 22 1.9 3.7.2 6.5 1.9 11 1.2 8.5-1.3 21-11.3 28-16.5 10.1-7.6 21.9-16.8 28.1-28.1 3.4-6.3 3.1-11 5-15l4.4-7c2.6-4.2 6.5-13.1 7.5-18 1-4.8-.5-5.8.5-12l8.7-44c.8-5.3-.8-10.7.9-16 1.8-6 16.2-18.1 17.5-22 1.4-3.9-3.2-7.1-5.8-9.2-5.2-4.3-12.2-12.2-14.2-18.7-1.6-5.3 1.6-7.8-3.9-15 4-5.6.7-13-1.2-19-1-3.2-.8-3.9-1.3-7-1.4-7.9-3.5-12.9-7.1-20l-4.3-11c-3.2-8.2-8.1-17.7-13.2-24.9-4.1-5.8-4.6-2.6-9.8-8.1l-12.3-13.6c-9.5-8-26.5-15.1-39-15.3h-4.5zm908.2.06L3428 40c-12.86.06-27.88 8.26-37 17.04-4.6 4.42-7.7 7.6-9 13.96 3.9-1.63 7.95-4.74 12-5.38 6.33-1 17.83 4.15 20.1 10.38 1 2.7.14 5.25 0 8-.6 10.6 4.06 21.4 4.2 24l-3.12 28c-.42 5.9 1.97 9.84 2.48 15l-1.1 17c-1.46 10.12-5.67 15.04-11.7 23-1.92 2.55-6.84 7.85-6.62 11 .18 2.52 3.42 6.07 5 8 3.24 3.92 10.2 11.4 11.5 16 2.42 8.65.44 15.5.75 20l1.6 9-1.1 15-1 20v15l.7 7v9l1.1 7.58-1.7 6.42c-.6 5.5 2.7 9.18-4.3 15.8-3.1 2.86-9.6 6.6-13.9 5.92-6.1-.95-9.2-5.38-16-4.72 7.3 13.63 23.5 20.7 38 23.8 3.7.8 9.2 2.15 13 1.88l11-1.36c2-.46 5.8-2.08 7.5-1.88 2.6.3 5.8 3.84 12.4 5.63 12.9 3.5 18.2-3 24-5.38l7-1.8c11.6-3.3 21.9-7.9 24-21-6.7 1.3-12.1 6.6-18 5.2-4.5-1.1-13.9-10-15.1-14.3-2.6-8.4 0-22.4 0-31l-1.8-13.9v-7.2l-1-14.8h3v-25c-.8-6.7-2.2-16.7 0-23 1.5-3.9 7.1-11.5 10.1-14.5s8.3-7 8.5-11.6c.1-3.8-4.3-8.3-6.6-11-6.9-8.3-12.1-10.9-12.2-22v-16c0-10.1-1.2-7.6 0-20l-.9-11 1-13-.8-27c-.2-2-.2-5.2 0-7 1.1-3.1 3.1-4.6 5.9-5.9 10.4-5 17.6.9 28 1.8-6.9-18.3-20.2-26.5-39-29.2-4.6-.7-9.3-1.3-14-.8-4 .4-5.8 1.6-9 4-1.9 1.5-3.6 3.9-6.2 2.9l-8.7-5.8c-3.7-2-6.1-2.3-9.4-2.4zM2976 40c-11.9.06-9.95 2-19 5.17-3.85 1.35-5.88 1.03-10 3.36-9.25 5.24-12.38 13.24-15.27 15.84L2925 69.2c-5.67 4.83-14.2 15.2-17.67 21.8l-5.34 15-5.8 12c-2.8 6.75-7.2 25.3-8.8 33l-4 27c-2.4 7.23-15.6 17.94-16.8 22.9-.8 3.17 3.6 6.98 5.6 9.2 2.9 3.24 10.9 10.26 11.9 13.9.3 1.4.1 3.5 0 5v14c.2 5.98 2.1 8.67 2.6 13 1.2 10.3.9 31.92 10.1 38-3.6 7.9 4.4 16.37 6.3 24 2.5 10 4.8 12.47 10.3 21l6.6 9.96c8.8 11.2 25.1 23.83 38.7 28.3 4.9 1.6 11.8 2.96 17 2.42h6c3.7-.1 7.1 1.46 11 .95 8.2-1.07 22.2-11.95 29-17 9.8-7.35 21.2-16.73 27.1-27.63 3.6-6.77 3.2-11 5.3-15 4.6-8.96 9.3-14.3 11.8-25 1.1-5-.6-5.42.5-12l8.8-44c.7-4.94-.7-9.77.7-15 1.9-7.57 15.8-17.53 17.6-23 1.4-4.26-4-7.8-6.7-10.14-4.7-3.9-11.5-12.05-13.3-17.86-1.9-6 2.3-4.78-3.9-16l3-1-2.3-12-2.6-7.58-3.2-14.42-14.7-34c-1.7-3.23-6.1-11.26-8.3-13.7-2.2-2.38-3.6-2.18-5.8-3.88-1.7-1.3-6.2-6.54-7.9-8.42-14.3-16.36-30.9-23.1-52.3-23zm827 0c-12.84.15-19.23 2.35-31 6.8l-14 5.47c-14.1 7.16-29.03 22.34-35.68 36.73-2.53 5.47-3.33 13.83-4.52 20l-3.62 21c-.32 4.5 4.26 24.33 5.58 29.83l.9 7.18c.64 2.4 7.4 14.9 8.97 16.9 2.2 2.8 6.56 5.8 9.37 8.4l10.04 10.7 11.87 9.4c3.2 3 8.7 9.6 9.7 13.8l.7 7c.9 6.4 1.8 5 .7 12 6.2 1.7 22.4-1.7 33 1.7 7.9 2.5 20.2 18.2 24.6 25.4 4.1 6.6 8.8 15.1 8.4 23-.4 8.4-4 25.2-8.6 32-1.5 2.3-4.2 5.1-6.3 6.9-5.6 5.3-8.3 7-16 6.9-2.7.3-7.5.4-10 0-11-2.3-21.5-11.3-28.4-19.8-2.4-2.9-7-9.3-7.9-13-.7-3.2.7-4.3.8-7.1l-1.4-11.8.8-11-1.1-7 1-7-1.2-6.6c.1-.8 4.4-14.8-3.6-17.2-1.3-.2-5.3-.2-6.9 0-10.1.1-11.5 4.6-19 5-3.4.2-10.6-1.2-13.2 1.4-3.9 4.3 0 12.2 0 16.4-.1 4.6-1.6 5.3-1.3 13v35c.5 4.5 7.5 22.2 10.3 25.5 2.3 2.7 6.7 4.7 11.9 10.5 4 4.5 12 13.1 16.4 16.6 3.2 2.6 9.2 5.2 13 7.2 9.9 5 20.8 10.1 32 10.2h16c6-.7 26.6-7 32-9.9 4.9-2.6 6-4.3 10-7.3l9-6.8c7.9-7.3 19.1-26.5 22.6-36.8l1.2-4.8c1.1-3.4 3.3-4.3 4.8-10.1 2.8-11 .6-13.3.8-17.4l.6-14.6c-.3-4.1-1.5-4.1-1.2-9 .5-7.8-.3-7.9-2.9-15l-3.4-9c-3.9-7.9-15.7-21.7-22.2-27.9l-18.4-17.2c-1.7-2.4-5.2-10.1-5.6-13-.5-3.3.3-9.6-2.8-12-1.6-1.2-5.3-1-7.3-1.2-3.3.2-14.6.5-17 0-6.6-2.2-19.7-14.4-24.2-19.8-8-9.5-14.3-22.2-13.7-35 .7-17 13.2-33.6 30.9-34l26 3 9 18 4-1-3 3c.7 5.6 1.5 13.2 1 18.8l-1.6 6.2.8 7v7c-.2 3.6-.6 12.1 1 14.9 2.2 3.6 6.3 3.1 9.9 3.17h31c4.1-8.85 1.2-17.9.8-27l1.1-14V87l-1.5-13 1.7-13c.2-5.97-.9-8.2-.9-10.72L3888 40c-6.3 1.85-11.23 7.78-13 14h-4c-.5 4.4-2.5 9.38-8 8.63-4.88-.67-17.2-10.1-22-12.84-13.6-7.7-22.6-10-38-9.8zm-1039 0c-9.22-.2-7.37.74-14.98 3.13-2.4.75-3.05.17-5.02 1.87-2.12-.9-2.5-1.42-5-.9-6 1.26-15.88 9.35-21 12.9-8.2-15.26-17.4-14.16-32-13.1-18.53 1.37-40.27 6.05-45 27.1 10-4.7 8.1-9.93 24-10 3.64-.02 8.72-.32 11.98 1.3 7.1 3.58 8 12.7 8.02 19.7 0 7.16.32 26.92 2 33-3.03 2.72-3.16 9.27 1 11-4.57 7.86-3.07 17.24-2.8 26v17c-.17 4.04-2.75 11.95 0 15-5.3 2.94-16.3 12.55-18.2 18 4.34 3.6 6.34 6.96 10.1 11 2.37 2.57 6.1 5.74 7.3 9 .72 1.94.6 4.9.6 7v48l1.1 17-.97 14v22c-.05 4.9-1.68 13.72 3.87 16-1.97 2.1-3.67 4.64-6.05 6.3-10.74 7.53-18.12-2.2-27.95-5.3 3.82 15.42 27.35 24.83 42 25 7.5.08 17.1-.6 21-8 4.38 3.7 11.77 9.24 17 11.47 3.88 1.66 12.55 3 17 3.78 7.57 1.32 16.35 2.86 24 1.23l9-2.4 12-2.24c10.25-2.7 23.9-10.5 32-17.3 4.83-4.07 12.62-14.16 16.4-19.54 5.72-8.1 13.82-23.2 15.3-33v-6l3.2-22c.68-9.87-2.74-26.76-6.36-36-2.42-6.18-6.37-15.8-13.54-17 2.77-10.1-6.15-14.85-13-20.73-2.03-1.75-6.82-5.16-6.38-8.17.3-2 2.86-3.5 4.4-4.5 4.32-2.9 7.65-4.54 11.08-8.7 8.2-9.9 20.6-31.9 20.9-44.9.1-4.47-.2-5.75-.72-10-.53-4.42.17-11.92-3.28-15 1.2-9.6-.68-9-2.7-16-1.05-3.63-1.37-7.75-3.95-10.73-1.64-1.9-3.15-2.36-5.35-3.27 2.85-4.25.7-6.35-2.3-10-5.54-6.82-8.8-10.1-15.7-15.55-5.02-3.95-6.6-4.4-12-7.1l-8-4.22c-9.03-3.6-24.17-4.53-34-5.22l-9-.9zm-465 5l-7 1 7-1zm11 2l-5 1 5-1zm9 3l-5 1 5-1zm12 1l-11 1 11-1zm10 2l-6 1 6-1zm6 1l-6 1 6-1zm1305 1h1v1l-1-1zm187 3h1v1l-1-1zm-1589 1c2.9 4.33 9.3 2.9 14 3.8 9.37 1.8 18.23 4.98 22.67 14.2 3.14 6.5 5.37 19.6 6.58 27 .46 2.82 1.8 10.57 1.42 13-.72 4.4-2.53 3.6-2.67 11-.08 4.45-.65 20.77 1 23.87.92 1.72 2.55 2.9 4 4.13-9.18 7.5-4.1 11.45-7.98 21-4.57 11.3-19.24 18.85-31.02 19-5.6.06-20.8.1-24.3-4.23-3.88-4.8-1.95-8.75-1.55-13.77l-.68-8 .87-9-1.72-8c.13-3.9 2.5-3.76 2.36-12l-1.6-14 1.28-11-1.48-16 1.03-12v-6l.8-7V63c5.8-.05 12.9.4 17.1-4zm1587 0h1v1l-1-1zm-373 8h1v1l-1-1zm353 0h1v1l-1-1zm-519 1l-6 1 6-1zm160 1h1v1l-1-1zm-487 2h1v1l-1-1zm-449 1h1v1l-1-1zm454 0h1v1l-1-1zm817 1h1v1l-1-1zm-3 1h1v1l-1-1zm-548 3l-6 1 6-1zm-468 2.46c2.97.24 8.43 3.9 11 5.63 2.23 1.5 5.6 4 7.05 6.3 2.3 3.6 1.6 8.4 2.08 12.5l1.6 6.2V123c-.4 5.45-2.52 5.2 0 11-3.4 8.66-.5 7.6-1.05 15-.58 7.76-1.26 15.97-6.87 21.9-9.6 10.24-31.5 12-38.1-2.9-1.6-3.63-.2-5.4 0-8.84.7-3.24-.3-4.3 0-7.17l1-7-2-12 1.5-16c.3-8.2-2.9-12.2 2.8-23 3.4-6.5 13.4-15.2 21.2-14.6zm-249.93.46c6.5-.07 12.55 1.66 17.93 1.08 3.32 5.83 8.66 17.48 9.67 24 .6 3.9-.48 7.14-.63 11-.18 4.64.5 6.03.58 10v35c.47 7.86 3.18 3.8 0 16-1.43 4.9-8.13 12.2-11.64 16-1.8 1.93-5.37 5.13-5.1 8 .22 2.4 4.07 6.1 5.68 8 3.22 3.83 9.4 11.36 11.1 16 1 4.28-.02 7.8 0 12v24l-.52 7 .72 7v15c-.4 9.15 2.75 5.85-.86 17 6 3.8 1.66 11.9-.78 17-6.45 13.5-14.36 18.45-29.22 16.83-9.78-1.07-15.2-8.05-18.3-16.83-2.94-8.33.1-9.73-7.7-16 7.63-6.47 4.02-7.35 4.04-20v-20c.1-4.9 1.9-9.84-1.04-14v-2c1.77-3.2 1.04-5.44 1-9-.06-6.04.06-16.64 2.68-22 1.88-3.85 7.45-10.65 10.37-14 1.56-1.8 4.32-4.4 4.07-7-.24-2.54-10.32-12.92-12.6-16-4.78-6.4-4.8-13.28-4.32-21l.8-26 1-22-.7-11c.03-2.44.74-3.73 1.1-6 1.2-7.6 3.46-11.22 10.6-15.1 4.14-2.23 8.2-2.93 12.07-2.98zm455.3.04c6.6.1 12.62 1.85 17.63 1.04 2.48 7.12 7.52 15.87 8.68 23 .73 4.52-.47 7.63-.64 12l.62 11v34c.43 7.64 3.37 6 0 17-2.23 5.37-14.03 18.4-18.66 22 4.78 5.83 16.66 18.3 18.8 25 .27 2.04.22 4.86 0 7v60c.64 7.37 2.5 7.08-.74 15 6.08 3.7 2.4 10.64 0 16-5.87 13.57-14.46 19.1-29.06 17.9-10.57-.86-16.4-8.44-19.48-17.9-2.27-6.94-.47-10.76-7.52-15 1.3-.94 3.16-2.06 4.07-3.4 2.1-3.55-.05-14.88 0-19.6v-18c.33-5.54 1.75-8.85-1.07-14 2.74-6.92-.6-23.25 3.9-32 2.25-4.34 7-10.28 10.26-14 1.57-1.8 4.56-4.4 4.22-7-.3-2.34-9.05-11.53-11.1-14-6.75-8.15-5.75-8.42-5.96-18l.68-13v-12l1-15-.58-25 .8-5c.52-2.2.22-2.93 0-5 4.2-3.97 6.04-7.9 11.78-10.6 4.26-2 8.4-2.5 12.37-2.44zM3213 81l-6 1 6-1zm362 1h1v1l-1-1zm259 0h1v1l-1-1zm-171 3h1v1l-1-1zm-459 2h1v1l-1-1zm547 3h1v1l-1-1zm-931 5v4l-4-1 4-3zm8 1h1v1l-1-1zm-2 1h1v1l-1-1zm-1 1h1v1l-1-1zm-2 1h2l-2 3-1-1 1-2zm849 1h1v1l-1-1zm9 1h1v1l-1-1zm-865 1l-6 4 6-4zm867 0l1 4-1-4zm6 8h1v1h1v1l-1-1-1-1zm179 0h1v1l-1-1zm-7 4h1v1l-1-1zm-599 4h1v1l-1-1zm443 0h1v1l-1-1zm-441 1h1v1l-1-1zm588 0h1v1l-1-1zm-2 1h1v1l-1-1zm-381 42h1v1l-1-1zm-892 1l3 2c-2.23.08-2.75.42-3-2zm454 0l2 3-2-3zm-455 4h1v1l-1-1zm-235 3h1v1l-1-1zm-2 1h1v1l-1-1zm-177 7h1v1h1v1h1v1l-1-1-1-1-1-1zm903 0h1v1l-1-1zm-899 3h1v1l-1-1zm152 2l-5 2 5-2zm899 1h1v1l-1-1zm-529 1h1v1l-1-1zm758 13h1v1l-1-1zm-1164 1l-7 3c2.2-2.83 3.55-2.67 7-3zm962 1h1v1l-1-1zm-521 1h1v1l-1-1zm185 1h1v1l-1-1zm536 0h1v1l-1-1zm-702 2h1v1h1v1l-1-1-1-1zm-477 1v2l-5 1 5-3zm480 1l5 2c-2.26.73-5 1.12-5-2zm511 2l5 2-6 1 1-3zm184 0h1v1l-1-1zm-1192 2c-4.32 3.08-8.8 3.76-14 4l14-4zm513 2h1v1l-1-1zm-447 10h1v1l-1-1zm473 0h1v1l-1-1zm-589 1h7l-7 2v-2zm574 1.84c5.2.3 13.7 4 16.08 7.37 3.28 4.7 1.5 8.8 9.92 12.8-7.6 10-1.93 12.7-2.34 20l-1.48 11 .57 8v10l1.16 8c.4 5.1-1.2 10-1.5 15-.4 5.8 2.4 10.6-1.5 16.9-5.4 8.6-21.7 11.4-30.6 7.4-2.5-1.1-6-5-7.6-7.3-2.2-3.2-5.1-15-5.2-19l.8-7v-44l-.6-6 1.4-7c1.9-12.5 4.5-23.3 19.2-26 .6-.1 1.3-.1 2-.1zm653 2.16h1v1l-1-1zm-1261 2l-7 1 7-1zm641 0h1v1l-1-1zm636 0h1v1l-1-1zm-1274 3h1v1l-1-1zm-6 2h1v1l-1-1zm666 0c-4.15 4.8-4.58 3.1-10 2.13h-7l17-2.13zm-667 1l-7 2 7-2zm670 4h1v1l-1-1zm756 45l5 1c-2.6.96-3.1 1.1-5-1zm12 2l3 1h-4l1-1zm4 2h1v1l-1-1zm-35 3h1v1l-1-1zm-1 1h1v1l-1-1zm185 11h1v1l-1-1zm-1261 3h1v1l-1-1zm1178 3h1v1l-1-1zm-420 4h1v1l-1-1zm215 4h1v1l-1-1zm9 3l7 3c-2.05-.5-6.94-.44-7-3zm-20 1h1v1l-1-1zm249 0h1v1l-1-1zm-1142 6h1v1l-1-1zm454 0h1v1l-1-1zm-452 1h1v1l-1-1zm454 0h1v1l-1-1zm449 0h1v1l-1-1zm-899 2h1v1l-1-1zm454 0h1v1l-1-1zm825 1h1v1l-1-1zm-1115 1h1v1l-1-1zm-1 1h1v1l-1-1zm1130 2l-5 1 5-1zm-1120.13.98c.63 0 1.33.03 2.13.02l-7 2c1.66-1.85 2.97-2.03 4.87-2.02zM2726 338h1v1l-1-1zm-6 4h2l-2 3-1-2 1-1zm7 0c-.55 2.87-.3 2.87-3 4l3-4zm4 0h1v1l-1-1zm-400.96 59.4c2.97-.15 5.76.95 8.96 1.6l-12-1c1.05-.38 2.05-.56 3.04-.6zm22.12 2.95c2.12.1 4.36.6 6.84.65l-13 1c2.03-1.47 4.04-1.75 6.16-1.65zM2404 409l-5 1 5-1z"/><path fill="#7f0011" d="M366.05 11.2c-1.98-.08-4 .05-6.05.42-2.38.43-4.9.95-6.98 2.23-3.34 2.06-4.27 4.28-6.6 7.02-2.1 2.46-3.68 3.22-5.42 6.13-3.04-3.98-4.82-5.9-9-8.78-19.52-13.44-40.54.34-53.56 15.78-4.1 4.85-8.5 9.9-10.44 15.9 7.83 1.96 11.43-2.73 15.9 0 5.62 3.15 8.06 15.13 7.8 21.1l1.3 13c-.37 2.4-2.86 6.27-3.93 9-2.26 5.73-4.32 12.97-5.65 19-1.5 6.8-4.34 19.48-4.42 26-.04 3.94-1.03 7.33 3 9l-5.9 3v10l-3.47 12-6.63 30 4 1c-10.5 11.75-5.25 16.7-7.5 25-1.9 7-5.46 6.2-5.5 21h-3c-.07-7.5-2.5-24.75-4.5-32l-3.1-9-1.83-15-2.25-13-1.95-7-.83-9c-1.1-6.15-3-8.35-3.7-11L234 140c-.05-3.13.27-7.04-.7-10l-4.2-9-.54-8-5.96-30c-1.33-6.64-3-11.2-1.1-18 1.7-6.2 8.2-15.84 15.5-14.93 5.08.74 4.6 1.46 10 0-7.1-11.26-26.96-30.58-40-34.28-3.23-1-8.62-1-12-.7-4.45.3-8.17 1.5-12 3.8-2.9 1.7-5.4 4.3-9 3.6-5.48-1.2-10.52-7.9-25-7.5-13.8.3-27.57 11.8-37 21-4.9 4.8-9.02 7.9-10 15l15-2.4c2.93.3 5.72 1.7 7.9 3.7 9.33 8.3 5.58 20.2 5.1 30.6h1v1h1v1l-1-1-1-1c-6.7 2.4-5.26 13.3-5.34 19-.04 3.1-2.42 11.5-3.3 15l-7.5 30c-.7 2.8-4.1 14.3-3.18 16.4.6 1.3 2.06 1.5 2.32 1.6-8.37 8.9-4.73 8.3-6.25 15l-4 11c-1.4 5.4-.05 7.1-2.84 14-5.1 12.6-21.9 26.9-32.9 35 2 8.7 5.3 13.1 10.8 20 2.5 3.1 7 7.1 7.6 11v10c.3 3.2-2.5 12.1-3.5 16l-1.9 8.7-1.7 4.4c-1.1 3.3.9 4.2 0 7.2L72.6 331l-1.06 14c-2.26 12.87-6.65 29.02-11.76 41-3.66 8.6-.18 15.62-8.1 24.98-1.83 2.16-4.14 4.3-6.68 5.57-9.4 4.7-18.1-5.43-27-7.55.96 5.12 3.34 9.48 5.86 14 6.94 12.44 18.06 28.2 34.14 26.9 4.95-.4 9.73-3.33 14-5.77 2.13-1.22 5.48-3.8 7.96-3.42 2.8.5 5.08 4.2 9.05 6.7 4.7 3 8.8 2.7 14 2.7 2.9 0 5.3.1 8-1 7.8-3 22-16.3 25.5-24 2.2-4.8 2.5-7.8 2.5-13-4.5 1.1-7.5 1.9-10 6-2.4-.7-6.4-1-7.7-3.3-1.3-2.3.1-7.1.6-9.7l5-25 2.6-15c.6-4-1.1-6 0-10l4.8-15 10.8-52 3.7-21c.8-4.6 2.2-6.8-1.6-10 6.2-4.2 3.4-5.8 2.6-11.1v-9.7c.6-4.2 4.5-4.3 7.7-14.1 3.8-11.3 4.7-23.3 6.8-35l14.4 74c2.5 13.9 10.5 56.4 10.6 68h4l3 41h4c-1.8 6.5 1 13.8 1 21 .1 6-1.7 15.8 5 18.4 1.9.7 5 .6 7 .6h48c4 0 12.3-.2 15.4-2.8 2.2-1.9 3.8-7.4 4.7-10.2 2-6.2 5.9-25.7 6-32l-.8-11c.7-3.6 3.3-5.2 0-8l9.6-24 1.8-12 4.1-10 4.6-20 2.7-19-2.8-6c8-2.4 8.6-10.7 10-18 3.5-18 2.3-34.9 11-52l10.7 46 3.4 12.5 2.7 1.3c-6.5 9.8 4.8 20 5 30 .3 14.5.7 7.9 4 20h1v1l-1-1-4-1 11.4 55 5.5 20c.5 4.6-.2 5.4.9 11l3.4 15c.4 3.7-2 8.3.8 11-2.6 3.5-5.5 7.1-10 8.4-5.4 1.6-19.5-5.8-26-7.3-1 6.2 3.7 10.3 7.2 15 2.2 3.1 5.3 7.3 7.9 9.9 7.5 7.1 20.8 13.7 30.9 16.1 9.7 2.4 14.9-.1 23-5.6 2.3-1.5 8-6.7 10.4-6.8 1.5 0 5.9 2.5 7.6 3.3 4.3 2 13.6 6.3 18 6.9 5 .7 11.1-1.6 16-2.8l10-2.4c12.2-4.7 26.3-19.4 31-31.6-8-1.4-15.6 8.4-26 2.1-12.1-7.2-17.8-28.2-20.4-41.1l-5.8-24-3.1-9c-1.1-4.4.9-4.1-1.2-12L428 281c5.72-2.38.78-6.96 2.5-13 1.1-3.82 9.63-13.43 12.58-17 1.86-2.26 5.34-5.74 4.77-8.9-.45-2.5-5.96-8.05-7.9-9.82-4.86-4.47-20.2-16.68-22.67-21.28-1.75-3.25-2.82-9.25-4.03-13-3.2-10.02-5.1-10.44-5.57-22-.3-7.5-3.93-14.86-5.93-22-1.13-4-.24-5.56-.85-8-.85-3.34-3.24-4.9-4.5-9l-4.53-21-3.46-12c-.6-5.6 3.7-17.16-4.4-22 3.6-9.7.3-9.48 1.1-16 .6-4.58 3.2-5.97 4-15l12-1.3 7 1.25h11c-2.5-8.63-10.5-14-17-19.8-10-8.88-22-19.46-35.9-19.96zM1173 26c1.44 4.32 3.28 4.3 5.03 8.04 3.1 6.6.9 14.73-5.16 18.97-3.96 2.8-16.95 5.1-21.87 4.9l-17-1.6c-2.66-.2-3.58.1-6 0h-10l-23 .6-18-.8-18 1-14 .9-10-1.6-15 1.7-20-1.9-9 .7c-5.42.4-9.62-2.7-13 2.3-10.36-6.3-17.07-.8-25-2.4-5.4-1.1-8.9-4.8-7.58-10.5.9-3.9 3.1-4.9 4.58-11-11.16 3.3-25.25 6.1-29.06 19-.94 3.2-1 6.7-.93 10 .1 4.2.8 7.4 3 11 1.2 1.9 3.7 4.2 4.1 6.2.5 3-4.5 10.8-4.5 15.8.1 8.7 11.6 19 19.5 21.2 3.3 1 6.6.8 10 .8-2.1-4.9-8.3-12.1-4.8-17.7 2.9-4.4 9.6-2.7 13.8-2.4l9-.6 18 .7 8-.8c10-.3 10.7 3.1 26-3 2.4 3.9 3.7 3.8 8 4 0 13.7-1.4 36.9 3 49-4.7 3.2-2.4 8.1-1.8 13 .9 7.6-.6 7.3-.8 13v14c-.6 11.6 2.3 7.9-.6 21-.4 1.9-.7 4.2-1.6 5.9-2.8 4.9-15.1 11.1-14.1 17.2.4 2.6 6.2 8.4 8.2 11 6.7 8.8 7.5 10.3 8.2 21l.9 7-1.1 12 .9 22-.6 17c.3 8.2.1 25.4-7.3 30.2-7 4.7-17.7.1-24.9-1.2 1.7 5.8 6.6 9.9 11 13.8 12.6 11.4 20 15.7 37 13.3 6.1-.8 10.4-1.5 15-6.1 4.5 3.5 9.4 7 15 8.4 11.7 3.1 25-5.5 34-12.3 5.7-4.2 12.8-8.6 14-16.1-7.8 1.5-14.2 7-22 1.5-3.3-2.3-9.4-9.3-9.9-13.4l1.6-16-1.8-21 .8-23 .9-8c.4-4.7-1.5-9.4 0-14 2.1-7.9 16.4-20.4 17.7-25 .9-3.3-1.3-5.7-3.4-8-5-5.5-8.9-8.1-12.6-15-5.6-10.5-2.2-13.4-1.9-21 .8-5.5.2-7 0-12v-8c-.4-2.6-1.2-3.8-1.2-7l1.2-18v-14c.2-4.8 1.5-6.3-3.3-9l2.4-4 1.6-18 26-.7 8 .6 9-.8 10 .6 10-1.6c3.4-.3 4.9.3 8 .6 4.7.5 11.2-.1 14.2 4.4 3.1 4.6-3 11.6-5.2 15.8 9.8-.2 24.1-4.5 27.4-15 .8-2.3.7-5.6.7-8-.3-11.6-6.9-16.1-5.8-22 .4-2.1 4.3-10.3 4.7-15 .4-4.3-1.2-5.6-1.7-8.4-.5-2.5.4-5.9-1.4-9.6-3.6-7.2-17-13.2-24.7-14zm645.24 13.36c-6.2.24-8.86 1.37-18.24 4.3l-7.9 2.64c-3.1 1.66-13.4 11.23-16.55 14.15l-6.5 5.6c-5.63 5.55-14 16.93-17.73 23.95l-4.72 12c-3.8 8.26-4.08 5.7-7.58 17l-3.55 15-.6 4.72c-.7 2.7-2.78 4.5-3.86 7.28-1.2 3.22-.5 4.88-.7 8-.4 7.52-3 19.98-7.5 26-4.7 6.33-14.6 13.93-16.7 21h4l-1 3c2.4 1.36 10.8 8.14 12.2 10.22.7 1.08 3.8 11.65 3.9 13.2V235l2 10.73c1 9.4-1.6 5.82 3 17.27h1v1l-1-1c-3.3 3.08-.3 9.17.7 13 2.8 10.97 5.9 25.9 10 36l10.5 20c2.3 4.55 2.1 6.67 5.4 12 4.5 7.4 21.2 25 28.5 29.08l19 6.37c2.7.58 3.7-.04 6 0l7.2 1.15c3.6-.07 8.3-1.83 13.9-1.5l9 .7h9c3.5.1 4.4 1.07 10 .9h18c3.6-.14 9.6-1.47 13-.9 2.4.1 5.3 1.67 7.3 0 3.8-2.53 2-9.33.7-12.8 2.9-2.58 2.9-8.42 0-11 2.8-7.5 1.5-5.92 1.1-13l.8-12-1.6-12c-.6-12.36 1.3-16.34 1.4-22l-1.1-8 1.5-8v-13c.1-7.5 1.2-16.8 5.9-22.9 4.5-5.84 14.8-8.53 21.2-4.36 2.7 1.78 4.4 4.57 6 7.26 6.5-2.36 8.1-8.87 3-11l3-1c-1.4-7.5-7.2-16.3-15-18.43-2.4-.68-7.3-.65-10-.53-3 .13-12.4 1.17-15 2.17l-11 5.7-17 4.2h-9l-14 1-15 .9h-21c3.3 7.1 7.7 9.4 13 14.3l7.5 7.3c3.7 2.7 6.8.2 9.5 3.9 2.8 4 1.8 7.4 1.7 11.6v8.1l-.6 12 3-1c-2.2 5.8-4.3 16-2.4 22 .7 2.3 2.2 4.1 3.5 6-1.4.5-2.1.4-3.2 1.6-2 2.2-2.9 10.5-6.2 16.4-4.3 7.7-7.2 5.8-12.6 6.8-3.2.6-4.5 1.4-8 1-16.8-1.6-18.4-13.1-20.4-26.8l-.6-28-.7-8 .7-9.9-1.12-5.2 1.2-16.8v-17c.3-10.4 1.35-11 9.06-19 2.5-2.5 8.48-7.2 7.8-11-1.2-6.6-13.4-12.8-16-21-3-9.4-2.7-25.8-3-36v-9c.4-6.1 2.36-2.4 2.2-18-.14-14.6 2.1-30.9 18-37 5.1-1.9 7.2-.9 12-1.1 9.05-.4 11.7 3 18 9.2 9 9 15.6 22 14.97 35-.3 7-4 10.7 2.1 18-4.7 3.2-2.5 7.2-2.9 12 0 6.2-1.9 3.9 0 12 .3 2.3.3 5.6 2.3 7 2.3 1.6 13.3 1 16.63.8h12c11.8.3 8.03-8.5 7.9-16.7v-12l.5-9-.7-18 .6-8c.4-8.4-1.5-8-1-12.1 2.1-16.7.94-24.2.74-40.3-.03-5.6 2.2-6 0-13.6-4.8 2.2-10.7 7.2-14.4 11.1-2.03 2.2-6.6 7.5-9.3 8.4-3 1-5.1-2.2-7-4-5.1-5-9.9-6-15.3-12.5-8.1.8-7.7-3-17-4.6h-8c-3.2-.1-5.7-.1-7.7 0zm-441.96.5c-2.4.13-4.83.64-7.28 1.62-4.14 1.64-9.7 5.62-12.9 8.7-1.8 1.7-4.6 5.72-7.14 5.8-2.13.05-6.08-3.36-7.96-4.62-4.8-3.23-9.32-5.62-15-6.93-3.77-.88-7.26-2.55-9 1.57l-1-3c-15.64.05-34.2 12.45-38 28 4.5-1.05 10.82-4.43 15-3.3 6.78 1.8 9.56 10 8.53 16.3l-10.9 51-5.73 21-1.4 8c-.67 2.5-4.57 11.85-5.98 14-5.95 9.12-9 9.86-16.35 16.72-1.96 1.83-6.37 5.76-6.96 8.32-.7 3.26 2.6 6.6 4.4 8.96 3.3 4.08 8.7 10.64 8.8 16 .1 4.54-1.8 8.66-2.7 13l-.8 8-8.5 29-4.2 23v7.42l-7.9 20.58c-3.8 10.2-2.5 21.62-13.2 29.35-8.7 6.26-16.6.2-24.9-1.35.7 4.2 1.6 7.57 4.4 10.9 6.9 8.1 25.2 13.96 35.6 11.57 7-1.6 12.2-6.77 15-6.95 2.7-.16 5.8 2.93 8 4.35 3.9 2.4 8.5 3.9 13 4.1 12.2.5 28.7-12.04 31-23.97-6.8 1.63-17 8.8-21.2-2.02-.5-1.27-.6-2.63-.7-3.98-.5-8.64 2.4-16.8 4.5-25l9.5-46c6.9-.34 7-1.62 11-2.1 3.9-.48 9.8 1.6 14 1.88h22c2.2.22 5.8 0 7.6 1.24 2.2 1.48 2.5 4.6 2.9 6.98l2.9 20c2 8.18 4.5 8.6 5.5 13 1.2 4.94-1.5 8.74 3.3 12-3.9 6.05 2.3 15.12 1.2 22-2.1 13.78-21.2 2.7-29.1 2 8.5 15.1 18.1 24.23 36 24 6-.08 9.8-1.53 15-4.32 2.2-1.15 5.7-3.68 8-3.95 4.6-.55 12 6.62 18 7.1 13.6 1.1 32.7-17.06 39-27.83 10.7 9.26 8.3 6.3 20 10.7 5.7 2.13 6.1 3.87 12 1.45 4.7 6.85 13-.2 19 0 2.7.3 8.8 3.9 16 4.52 7.3.64 12.7-2.7 19-5.47 9-3.96 21.7-6.12 25-17.36h-4l-11 3.16-1 2c-8.8-7.63-18.7-15.98-17.8-29 .3-3.96 1-5.37.8-10l-.7-7c-.2-6.1 1.3-4.1-1.3-11 4.4-3.88.9-16.42 1.2-22v-13l.9-13c0-7.5-1.6-9.83-1.5-13l1.2-7c.3-3.28-.3-4.16-.6-7l1-13v-21l3.8 11 4.5 10 10.9 36 7 15 2.7 10 5.2 7.28V281l5.2 16.4 2.7 1.6c.4 4.06.5 6.6 4 9-1.1 3.24-.9 11.78 1.6 14.4 1.2 1.16 2.1 1.16 3.4 1.6-2.2 6.04-.3 10.1 1.7 16 3.9 11.03 10.6 27.82 21.3 33.45l11 5.38c3.5 1.03 13.3 2.12 17 2.17h11c8.7-.04 11.2-1.73 19-4.8 3.7-1.42 7.7-2.65 11-4.56 9.1-5.15 17.2-15.64 20-25.64l-1-1c-7.5 3.56-8.5 8.65-17 8.98-1.8.07-5.2.1-6.8-.58-8-3.3-9.1-18.1-9.5-25.4-.3-4 1.3-4 1.2-11.96l-1-11.04.7-14-1.4-6 1.5-6v-12c.4-9.65-1.4-19.5 0-29h-1.7v-1l2-2c-.7-1.66-1.6-3.08-1.6-5 .2-7.5 18.2-24.63 19.6-28 1.9-4.8-3.4-9.7-9-9-1-8.54-4.1-6.04-7-10.4-1.8-2.8-4.2-12.67-4-16.32l2-21.28v-25l-4-1 4-4-3-6c4.8-3.2 3-10.94 2.7-16-.9-14.1 1.9-27.73 19.3-24.67 6.8 1.2 7.9 4.6 15 5.67-1.4-7.07-4.13-9.02-9-14-1.73-1.77-4.4-4.8-6.3-6.2-2.3-1.68-15.1-7.92-17.7-8.37h-14c-5.7.25-9.34 3.9-12 4.07-4.35.27-6.5-5.38-16-5.48-6-.07-6 1.4-11 2.93-11.74 3.6-28.75 14.73-34 26.05 8.3 1.23 15.5-9.07 24-5.4 6.5 2.85 9.85 11.72 10.15 18.4v24.17l.9 8.83-1.1 11c-.1 6.5-1.5 22.1 1.8 27-3 4.52.23 15.18 0 21-.56 6.97-.6 14.05 0 21l-1.8 27-9-28-6.5-18-1.9-8-5.2-14-10.7-35c-3.1-9.13-6-18.3-10.2-27l-3.9-7c-2.1-4.22-2.9-8.95-5.6-12.96L1550 61.3l-6.8-4.5c-12.1-8.44-26.7-16.7-42-14.5-9.98 1.42-23.4 9.4-31 15.83-5.2 4.4-11.05 8.62-14 14.87 9.86-1.04 16.47-8.92 26.84.67 3.37 3.1 5.64 14.6 5.4 19.24-.24 4.2-1.4 2.7-1.25 12.1.1 6.4 1.7 6.9 1.6 9.5-.1 1.9-1.4 3.9-1.5 7.6l.7 8c.3 4.3-.5 6.2-.8 10v17c0 6 1.9 12.1 0 18-1.5 5.4-7.2 12.4-11.1 16.5-2.2 2.4-5.8 4.8-5.5 8.5.4 5.6 10.4 13.2 13.8 18 4.6 6.6 3 12.6 3.5 20l-.6 13 1 10-.8 12c-.3 2.7.1 3.6 0 6v31l1.5 10-1.2 8c-.1 2.4.9 4.6 0 7-1.3 3.8-5.6 5.6-8.6 11.9h-11l-13-1.9 4 5c-4.1 4-8.1 8.4-14 8.9-15 1.4-15.7-17.4-17.4-27.9l-12.9-72-5.3-30c-.4-6.3 5.8-13.2 9.4-18 1.6-2.1 4.6-5.1 3.8-8-1.3-4.8-9.9-8.1-13.1-11.5-1.5-1.5-2.1-3.5-3.3-5.2l-4.3-5.4c-3.2-4.9-5.3-13.2-6.5-18.9l-7.9-46c-.7-5-.2-14-4.6-17 4.8-11.3-3-20-1.6-28 1.6-8.6 11.4-8.9 17.6-5.6 4.6 2.5 5.6 5.1 11 7.6-2.4-15.5-17-33.9-33.7-33.1zM828 40c-6.43-.07-15.74.23-22 1.33l-17 5.86-12 4.6c-14.06 7-27.67 20.2-34.9 34.2-4.92 9.5-3.98 11.9-5.9 22l-4.02 22c-.36 4.8 2.03 11.9 3.02 17l2.78 13.7.55 5.3c.84 3.2 7.73 16.1 10 18.6l19.56 18.9 11.8 9.4c8 8 7.9 9.8 9.4 19.9.9 6.3 1.8 4.9.7 12 6.3 1.6 22.7-1.6 33 1.5 4.3 1.3 8.8 6.3 12 9.5 7.7 7.8 20 24.2 21.1 35.5.3 3.5-1.4 13.7-2.3 17.4-1 3.9-3.5 13.5-5.3 16.8-1.3 2.4-3.7 4.3-5.6 6.2-7.8 7.4-9.4 9-20 8.9-14.6 0-25.4-7.1-34.7-18-3-3.5-8.2-10.6-9.4-15-1-3.8.7-4.6.6-8.1l-1.5-10.9.8-9c.1-4.4-1.3-5.8-1-10 1-9.7-.1-5.7 0-12-.1-5 3.2-13.3-2.4-17-1.9-1.3-6.3-1-8.6-1-12.3.3-8.9 5.6-24 5.1-2.9-.1-6.8-.7-8.5 2.2-2.9 4.4-.4 9.2 0 13.7.6 4-.9 7.2-1 11v34c0 2-.3 2.9 0 5 .6 5.5 7.2 21.8 10.8 25.8l9.4 8.2c5.8 6.1 11.5 13.3 18.2 18.5 3.2 2.6 9.1 5.3 13 7.2 9.7 4.8 21 10.1 32 10.2h12c6.3-.1 9.9-1.6 16-3.1 7.6-1.9 16.4-4.2 23-8.7l7-5.6c12.5-9.2 15-12 22.8-25.6 4.3-7.5 10.2-16 9.1-25 7.6-4.5 6.1-15.5 8-23-1.8-2.9-1-10.3-1-14 .1-7.2-1.2-5.8-1.5-10-.3-2.3.6-4.1 0-8-.9-6.6-7.8-21.5-11.8-27-3.5-4.8-12.4-14.8-16.8-18.8-9-8.3-21.6-17.2-24.1-29.9v-5.3c-.2-2.2-.7-5.6-2.6-7-1.6-1.2-4.5-1-6.4-1-3.9-.1-15.1.4-18-.5-7.6-2.4-20.1-14.3-25-20.5-6.8-8.6-12.2-18.9-12.9-30-1.2-17.9 12.1-37.6 30.9-38l26 3 9 18 4-1-3 3c.8 4.9 1.5 14.1.9 19l-1.4 6 .6 7v7c-.2 4-.8 12.6 1.7 15.7 1.9 2.3 4.4 2.2 7.2 2.1h24c1.9-.2 7.1-.1 8.7-1 2.2-1.3 2.7-4.6 3-6.8.8-6.5-1.7-12.6-2-19-.2-5 1.4-6 1.4-10V92L904 76c-.37-7 1.45-12.43 1.6-17 .2-4.04-1.2-6.37-1.03-8.72.07-2.3 3.1-7.44 0-9.1-2.3-1.35-5.6 2.28-7 3.84l-8.43 10.43c-1.9 2.72-2.7 6.3-6.9 7.13-5.9 1.15-13.2-9.33-18-5.58-1-2.12-1.5-3.73-3.3-5.37-6-5.83-24.45-11.53-33.3-11.63zm-291.58.3c-3.8.05-8.12 1.97-11.42 3.3-11.28 4.57-28.6 15.23-30 28.4 5.52-.98 15.58-3.9 20.8-.83 5.23 3.1 6.55 15.2 7.5 20.83 1.6 12.72-.2 12.9 0 18l1.83 7.42V125l1.57 6.58c.04 1.36-3.92 10.9-3.25 19.42v9c.9 5 4.2 5.45 0 14-3.06 6.2-15.24 17.93-16.28 21-1.4 4.1 7.03 11.65 9.6 15 2.6 3.42 6.5 8.66 6.8 13v9l1.37 6.72c.35 3.37-1.53 5.8-1.48 10.28l2.5 23.72-.9 11.28v15l4.35 23 1 10c3.2 12.3 15 28.23 25.6 35.04 5.9 3.78 17.2 7.84 24 9.6 9.1 2.3 16.6 4.46 26 4.12h20c25.8.2 48.3-11.48 61.8-33.76 5-8.15 10.9-19.76 13.1-29 1-4 2.8-9.08-1.8-11 3.9-3.9 5.5-8.23 2-13 .5-1.05.9-1.15 1.3-3l.6-15-.9-7 1-9-.7-9 .6-8-1.1-6c-.7-5.93 2.9-10.04-.6-15l14-17c2.2-2.2 6.4-5.78 6.4-9 .1-2.65-3-6.07-4.6-8-3.9-4.56-11.1-11.33-13.1-17-2-5.72-.4-15.04-.6-21v-43c.1-9.26-.9-7.65-1.2-12-.3-3.24.9-5 1-8 .3-4.65-1.8-10.54 3.7-15.57 4.3-3.98 15.8.3 21.6.57-1.1-2.77-4.1-9.66-5.8-11.83-7.2-9.07-32-21.47-43.4-8.17-3.8-3.22-9.9-8.1-15-8.62-3.4-.34-4.9 1.15-8 2.1l-6 1.6c-8.8 3.77-20.1 15.8-23 24.92 5.4-1.08 8.1-3.42 14-2.94 8.8.7 11.9 9.4 12.1 16.94L652 98l.5 16 1.08 6-1.5 13c-.24 4.36.6 6.14.83 10 .6 9.48-2.8 9.42 1.1 20l-3.4 12-17.6 21c5.7 8.5 5.6 5.93 10.5 10.84 4.7 4.65 9 12.54 8.9 19.16l.9 11v8l.7 9-1.5 19c-.4 3.74.5 4.98 0 8v10.42c.1 3.64-.6 4.5 0 9.58-.2 5.18 1 6.5 0 12-3.3 15.6-12.7 26.8-29.4 27-4.1.05-10.2.34-14-1.15-9.9-3.88-17.8-19.72-19.3-29.85v-7l-1.3-8 1.3-6-.6-17v-10c-.2-2.76-1.8-5.22-1.8-8 .1-3.9 2.5-5.2 2.3-10v-18c4.2-14.95 13.5-17.17 20.4-29-8.1-6.13-18.8-16.9-21.5-27-2.1-8.1 1.3-9.74-1.5-17 .2-.1 1.7-.18 2.3-1.6 1-2.43-.6-13.42-1-16.4-.4-3.65 1.1-8.26 1.4-12l-.6-10 2.4-27c1-4.1 3.1-11.73 6.9-13.98 3.9-2.3 13.2.36 17.8.98-2.2-4.96-7.3-11.06-11.6-14.45l-4.8-3.12-3.8-3.97c-4.6-4.06-13-8.66-19-9.26-4.4-.44-8.3 1.1-12 3.6-2.2 1.52-5.2 4.86-8 4.62-1.8-.16-5.2-2.9-7-3.95-2.8-1.7-8.8-4.57-12-5.05-.5-.08-1-.1-1.5-.1zM164 49l5 1-5 1v-2zm1157 4h1v1l-1-1zm496 1l-5 1 5-1zm32 1h1v1l-1-1zM598 56h1v1l-1-1zm259 2h1v1l-1-1zm-707 3h1v1l-1-1zm-1 1h1v1l-1-1zm1163 1h1v1l-1-1zm-1 1h1v1l-1-1zM182 65l3 1c-1.58.54-3 1.23-3-1zm653 2h1v1l-1-1zm287 1l-6 1 6-1zm-311 5h1v1l-1-1zm-3 1h1v1l-1-1zm258 3l-6 1 6-1zm572 0h1v1l-1-1zm-600 4l-6 1 6-1zm-186 1h1v1l-1-1zm-293 3h1v1l-1-1zm3 1h1v1l-1-1zm3 1h1v1l-1-1zm463 0h1v1l-1-1zm-74 6h1v1l-1-1zm-281 1h1v1l-1-1zm708 4v5-5zm-721 2h1v1l-1-1zm98 2h1v1l-1-1zm-407 2l-7 3c2.13-3.06 3.43-2.8 7-3zm1159 0h1v1l-1-1zm-13 4h1v1l-1-1zm-611 2h1v1l-1-1zm-555 1h1v1l-1-1zm1044 0h1v1l-1-1zm-3 2h1v1l-1-1zm-493 1h1v1l-1-1zm492 0h1v1l-1-1zm-1 1h1v1l-1-1zm-1 1h1v1l-1-1zm-284 1h1v1h1v1l-1-1-1-1zm-215 2h1v1l-1-1zm218 0h1v1l-1-1zm804 0h1v1l-1-1zm-1024 1h1v1l-1-1zm492 2h1v1l-1-1zm-1 1h1v1l-1-1zm522 4h1v1l-1-1zm-1350 2h1v1l-1-1zm811 4h1v1l-1-1zm-5 1h1v1l-1-1zm4 0h1v1l-1-1zm-5 2h1v1l-1-1zm526 1h1v1l-1-1zm-501 1l-8 1 8-1zm-32 1h1v1l-1-1zm9 1c.15 16.3 8.25 35.25 9 41v8l7 48-10 1.88-18-1.58c-8.58-.8-5.67 2.8-14-3.3l7.72-28 7.02-22 2.26-18 5.44-13 3.56-13zm32 2h1v1h1v1l-1-1-1-1zm-55 5h1v1l-1-1zm-15 9h1v1l-1-1zm474 13h1v1l-1-1zm-733 15h1v1l-1-1zm4 2h1v1l-1-1zm630 9h1v1l-1-1zm-1 1h1v1l-1-1zm-8 2h1v1l-1-1zm6 0h1v1l-1-1zm38 2h1v1l-1-1zm-630 8l5 2-6 1 1-3zm-546 3h1v1l-1-1zm1118 8h1v1l-1-1zm264 3h2l-3 3v1l-1-1h1l1-3zm-1679 7l-6 1 6-1zm-93 8l-4 3 4-3zm1482 0h1v1l-1-1zm-1343 1l-5 1 5-1zm1339 2h1v1l-1-1zm274 0h1v1l-1-1zm-275 1h1v1l-1-1zm274 0h1v1l-1-1zm-276 1h1v1l-1-1zm275 0h1v1l-1-1zm-276 1h1v1l-1-1zm276 0c-1.5 3.7-1.82 4.96-6 5l6-5zm-1534 4l-5 1 5-1zm1247 3h1v1l-1-1zm273 8h1v1l-1-1zm-1335 2h1v1l-1-1zm3 1h1v1l-1-1zm1318 7h1v1l-1-1zm-6 6h1v1l-1-1zm-1283 1h1v1l-1-1zm3 1h1v1l-1-1zm943 12l-5 5c1.2-3.6 1.46-3.7 5-5zm234 5h1v1l-1-1zm2 2h1v1h1v1h1v1l-1-1-1-1-1-1zm-483 2h1v1l-1-1zm-17 4h1v1l-1-1zm-490 2h1v1l-1-1zm-78 1h1v1l-1-1zm-20 4h1v1l-1-1zm4 2h1v1l-1-1zm397 3h1v1l-1-1zm706 1h1v1h1v1h1v1h1v1h1v1h1v1l-1-1-1-1-1-1-1-1-1-1-1-1zm-373 5c-2.17 2.64-3.73 2.52-7 3v1l-1-1h1l7-3zm-323 2h1v1l-1-1zm-847 3l-4 2 4-2zm1151 1h1v1l-1-1zm470 3h1v1l-1-1zm-994 3h1v1l-1-1zm511 1h1v1l-1-1zm-497 3l-5 1 5-1zm525 12l3 5c-2.53-1.55-3.17-1.94-3-5zm-847 3h1v1l-1-1zm868 13h1v1l-1-1zm4 3h1v1l-1-1z"/></svg>